# Sword oleh MiniPoly (poly.pizza/m/toZKKGhFWc), CC0 1.0 (domain publik)
# Dikonversi dari GLB: tegak di sumbu Y, gagang di y=0, ujung bilah di y=1, panjang 1 blok
v 0.00000 0.35596 0.02171
v 0.03275 0.28944 0.00956
v 0.03310 0.35590 0.01114
v 0.00000 0.28946 0.02318
v 0.00000 0.58346 0.02122
v 0.00000 0.26442 -0.01248
v 0.04265 0.26439 -0.00241
v 0.00000 0.26442 0.01248
v -0.04265 0.26439 -0.00241
v 0.04265 0.26439 0.00241
v 0.00000 0.86979 0.02474
v 0.04134 0.81119 0.01139
v 0.04785 0.89648 0.01157
v 0.00000 0.81080 0.02454
v 0.03510 0.58362 0.01034
v 0.00000 0.86979 -0.02474
v 0.02903 0.93537 -0.01176
v 0.04785 0.89648 -0.01157
v -0.04785 0.89648 -0.01157
v -0.02903 0.93537 -0.01176
v 0.00000 0.98265 -0.00719
v 0.05580 0.89797 0.00323
v 0.04899 0.81074 0.00323
v 0.05580 0.89797 -0.00323
v 0.04241 0.58346 0.00300
v 0.04899 0.81074 -0.00323
v 0.04241 0.58346 -0.00300
v 0.04031 0.35611 -0.00346
v 0.03510 0.58362 -0.01034
v 0.04241 0.58346 -0.00300
v 0.03275 0.28944 -0.00956
v 0.03310 0.35590 -0.01114
v 0.04265 0.26439 -0.00241
v 0.00000 0.98265 0.00719
v 0.00000 0.86979 0.02474
v 0.02903 0.93537 0.01176
v 0.04785 0.89648 0.01157
v -0.02903 0.93537 0.01176
v -0.04785 0.89648 0.01157
v 0.04899 0.81074 -0.00323
v 0.04031 0.35611 0.00346
v 0.04265 0.26439 0.00241
v 0.04031 0.35611 -0.00346
v 0.04265 0.26439 -0.00241
v 0.00000 0.81080 -0.02454
v 0.03510 0.58362 -0.01034
v 0.00000 0.58346 -0.02122
v 0.04134 0.81119 -0.01139
v 0.03310 0.35590 -0.01114
v 0.00000 0.35596 -0.02171
v 0.04785 0.89648 0.01157
v 0.04134 0.81119 0.01139
v 0.04899 0.81074 0.00323
v 0.03589 0.93903 0.00330
v 0.02903 0.93537 0.01176
v 0.00000 1.00000 0.00342
v 0.00000 0.98265 0.00719
v 0.05580 0.89797 0.00323
v 0.03510 0.58362 0.01034
v 0.04241 0.58346 0.00300
v 0.03310 0.35590 0.01114
v 0.04031 0.35611 0.00346
v 0.03275 0.28944 0.00956
v 0.04265 0.26439 0.00241
v 0.00000 0.28946 0.02318
v 0.00000 0.26442 0.01248
v 0.03275 0.28944 0.00956
v 0.04265 0.26439 0.00241
v 0.00000 0.86979 -0.02474
v 0.04785 0.89648 -0.01157
v 0.03275 0.28944 -0.00956
v 0.00000 0.28946 -0.02318
v 0.03589 0.93903 -0.00330
v 0.04785 0.89648 -0.01157
v 0.02903 0.93537 -0.01176
v 0.05580 0.89797 -0.00323
v 0.04134 0.81119 -0.01139
v 0.00000 0.98265 -0.00719
v 0.00000 1.00000 0.00342
v 0.03589 0.93903 0.00330
v 0.00000 1.00000 -0.00342
v 0.05580 0.89797 0.00323
v 0.03589 0.93903 -0.00330
v 0.05580 0.89797 -0.00323
v 0.00000 0.28946 -0.02318
v 0.03275 0.28944 -0.00956
v 0.00000 0.26442 -0.01248
v 0.04265 0.26439 -0.00241
v 0.00000 1.00000 -0.00342
v 0.03814 0.23438 -0.01336
v 0.03814 0.23438 0.01336
v 0.03438 0.23125 0.01016
v 0.03438 0.23125 -0.01016
v 0.00000 0.22221 0.02839
v 0.00000 0.22023 0.02321
v 0.00000 0.22221 -0.02839
v 0.03250 0.29753 -0.02158
v 0.00000 0.27523 -0.02919
v 0.00000 0.29677 -0.02652
v -0.04895 0.26217 -0.02063
v -0.05612 0.28382 -0.02072
v -0.03250 0.29753 -0.02158
v 0.04895 0.26217 -0.02063
v 0.00000 0.25512 -0.02724
v 0.05612 0.28382 -0.02072
v 0.01638 0.30916 -0.02220
v -0.01638 0.30916 -0.02220
v 0.09389 0.28906 -0.01674
v 0.08835 0.26846 -0.01779
v 0.00000 0.27523 0.02919
v 0.05612 0.28382 0.02072
v 0.03250 0.29753 0.02158
v -0.05612 0.28382 0.02072
v -0.04895 0.26217 0.02063
v 0.00000 0.25512 0.02724
v 0.04895 0.26217 0.02063
v 0.08835 0.26846 0.01779
v -0.04994 0.25054 0.01607
v 0.00000 0.23925 0.02254
v 0.04994 0.25054 0.01607
v 0.12075 0.26984 -0.01192
v 0.11956 0.28564 -0.01204
v 0.04994 0.25054 -0.01607
v 0.04994 0.25054 0.01607
v 0.03810 0.24679 0.01305
v 0.00000 0.23925 0.02254
v 0.00000 0.23620 0.02070
v 0.03810 0.24679 -0.01305
v 0.00000 0.23925 -0.02254
v 0.13367 0.29966 -0.02097
v 0.12075 0.26984 -0.01192
v 0.11956 0.28564 -0.01204
v 0.13642 0.25775 -0.02086
v 0.14209 0.30259 -0.02228
v 0.14736 0.25590 -0.02244
v 0.09389 0.28906 0.01674
v 0.12075 0.26984 0.01192
v 0.03814 0.23438 0.01336
v 0.03814 0.23438 -0.01336
v 0.03810 0.24679 0.01305
v 0.03810 0.24679 -0.01305
v 0.11956 0.28564 0.01204
v 0.00000 0.22023 -0.02321
v 0.14736 0.25590 -0.02244
v 0.14736 0.25590 0.02244
v 0.13642 0.25775 0.02086
v 0.15880 0.25866 -0.02088
v 0.13642 0.25775 -0.02086
v 0.12075 0.26984 -0.01192
v 0.00000 0.22023 0.02321
v 0.03231 0.19010 0.00986
v 0.03438 0.23125 0.01016
v 0.00000 0.18103 0.02414
v 0.13367 0.29966 0.02097
v 0.12075 0.26984 0.01192
v 0.13642 0.25775 0.02086
v 0.11956 0.28564 0.01204
v 0.14209 0.30259 0.02228
v 0.00000 0.31384 -0.02385
v 0.01638 0.30916 0.02220
v 0.01638 0.30916 -0.02220
v 0.00000 0.31384 0.02385
v 0.03250 0.29753 0.02158
v 0.03250 0.29753 -0.02158
v 0.04994 0.25054 -0.01607
v 0.00000 0.23925 -0.02254
v -0.04994 0.25054 -0.01607
v 0.05612 0.28382 -0.02072
v 0.09389 0.28906 0.01674
v 0.09389 0.28906 -0.01674
v 0.05612 0.28382 0.02072
v 0.11956 0.28564 0.01204
v 0.11956 0.28564 -0.01204
v 0.17218 0.28636 -0.00831
v 0.16374 0.29752 0.01680
v 0.17218 0.28636 0.00831
v 0.16374 0.29752 -0.01680
v 0.16739 0.26509 -0.01674
v 0.16739 0.26509 0.01674
v 0.15880 0.25866 0.02088
v 0.17326 0.27702 0.00834
v 0.15392 0.30201 -0.02083
v 0.15392 0.30201 0.02083
v 0.14209 0.30259 -0.02228
v 0.05612 0.28382 -0.02072
v 0.05612 0.28382 0.02072
v 0.16374 0.29752 0.01680
v 0.17326 0.27702 0.00834
v 0.17218 0.28636 0.00831
v 0.16739 0.26509 0.01674
v 0.15880 0.25866 0.02088
v 0.00000 0.23620 -0.02070
v 0.00000 0.23620 -0.02070
v -0.03814 0.23438 -0.01336
v -0.03810 0.24679 -0.01305
v 0.03814 0.23438 -0.01336
v 0.00000 0.22221 -0.02839
v 0.03810 0.24679 -0.01305
v 0.16374 0.29752 -0.01680
v 0.15880 0.25866 -0.02088
v 0.15392 0.30201 -0.02083
v 0.16739 0.26509 -0.01674
v 0.17326 0.27702 -0.00834
v 0.01638 0.30916 0.02220
v 0.00000 0.31384 0.02385
v 0.00000 0.29677 0.02652
v -0.01638 0.30916 0.02220
v -0.03250 0.29753 0.02158
v 0.17218 0.28636 -0.00831
v 0.17218 0.28636 0.00831
v 0.17326 0.27702 0.00834
v 0.17326 0.27702 -0.00834
v 0.08835 0.26846 0.01779
v 0.04895 0.26217 0.02063
v 0.08835 0.26846 -0.01779
v 0.12075 0.26984 -0.01192
v 0.04895 0.26217 -0.02063
v 0.17218 0.28636 -0.00831
v 0.13367 0.29966 -0.02097
v 0.14209 0.30259 0.02228
v 0.11956 0.28564 0.01204
v 0.13367 0.29966 0.02097
v 0.17326 0.27702 -0.00834
v 0.12075 0.26984 0.01192
v 0.00000 0.23620 0.02070
v 0.03814 0.23438 0.01336
v 0.03810 0.24679 0.01305
v -0.03814 0.23438 0.01336
v 0.00000 0.22221 0.02839
v 0.12075 0.26984 0.01192
v 0.11956 0.28564 -0.01204
v 0.04994 0.25054 0.01607
v 0.04994 0.25054 -0.01607
v 0.04895 0.26217 0.02063
v 0.04895 0.26217 -0.02063
v 0.03438 0.23125 -0.01016
v 0.03231 0.19010 0.00986
v 0.03231 0.19010 -0.00986
v 0.03438 0.23125 0.01016
v 0.14736 0.25590 0.02244
v 0.15392 0.30201 0.02083
v 0.00000 0.31384 -0.02385
v 0.00000 0.05604 0.02421
v 0.02859 0.05741 0.01004
v 0.02571 0.05916 0.00849
v -0.02859 0.05741 0.01004
v 0.00000 0.05283 0.02855
v 0.00000 0.05283 0.02855
v 0.03118 0.04415 0.00820
v 0.02859 0.05741 0.01004
v 0.00000 0.03918 0.02331
v 0.02859 0.05741 -0.01004
v 0.00000 0.05283 -0.02855
v 0.00000 0.05604 -0.02421
v 0.02571 0.05916 -0.00849
v -0.02859 0.05741 -0.01004
v 0.02859 0.05741 -0.01004
v 0.02571 0.05916 0.00849
v 0.02859 0.05741 0.01004
v 0.02571 0.05916 -0.00849
v 0.00000 0.03631 0.02614
v 0.03368 0.04250 0.00921
v 0.03118 0.04415 0.00820
v 0.00000 0.03918 0.02331
v -0.03118 0.04415 0.00820
v 0.02859 0.05741 0.01004
v 0.03118 0.04415 0.00820
v 0.02859 0.05741 -0.01004
v 0.03118 0.04415 -0.00820
v 0.00000 0.05283 -0.02855
v 0.02859 0.05741 -0.01004
v 0.03118 0.04415 -0.00820
v 0.00000 0.03918 -0.02331
v 0.00000 0.02502 -0.03106
v 0.03906 0.02643 -0.00827
v 0.02950 0.01163 -0.00512
v 0.00000 0.00000 -0.01158
v 0.03368 0.04250 0.00921
v 0.03368 0.04250 -0.00921
v 0.03118 0.04415 -0.00820
v 0.03118 0.04415 0.00820
v 0.00000 0.03631 -0.02614
v 0.03118 0.04415 -0.00820
v 0.03368 0.04250 -0.00921
v -0.03118 0.04415 -0.00820
v 0.00000 0.03918 -0.02331
v 0.00000 0.00000 -0.01158
v 0.02950 0.01163 -0.00512
v 0.00000 0.00000 0.01158
v 0.02950 0.01163 0.00512
v 0.00000 0.02502 0.03106
v 0.02950 0.01163 0.00512
v 0.03906 0.02643 0.00827
v 0.00000 0.00000 0.01158
v 0.03906 0.02643 0.00827
v 0.02950 0.01163 0.00512
v 0.03906 0.02643 -0.00827
v 0.02950 0.01163 -0.00512
v 0.03368 0.04250 0.00921
v 0.03906 0.02643 0.00827
v 0.03368 0.04250 -0.00921
v 0.03906 0.02643 -0.00827
v 0.00000 0.02502 0.03106
v 0.03368 0.04250 0.00921
v 0.00000 0.03631 0.02614
v 0.03906 0.02643 0.00827
v 0.03368 0.04250 -0.00921
v 0.00000 0.02502 -0.03106
v 0.00000 0.03631 -0.02614
v 0.03906 0.02643 -0.00827
v 0.00000 0.17736 0.01929
v 0.03014 0.14706 0.00820
v 0.02976 0.18647 0.00762
v 0.00000 0.13997 0.02124
v 0.00000 0.13633 0.01740
v 0.02797 0.10403 0.00883
v 0.02756 0.14347 0.00640
v 0.00000 0.09891 0.02409
v 0.00000 0.09529 0.02015
v 0.02571 0.05916 0.00849
v 0.02536 0.10046 0.00693
v 0.00000 0.05604 0.02421
v 0.00000 0.17736 -0.01929
v 0.03014 0.14706 -0.00820
v 0.00000 0.13997 -0.02124
v 0.02976 0.18647 -0.00762
v 0.00000 0.13633 -0.01740
v 0.02797 0.10403 -0.00883
v 0.00000 0.09891 -0.02409
v 0.02756 0.14347 -0.00640
v 0.00000 0.09529 -0.02015
v 0.02571 0.05916 -0.00849
v 0.00000 0.05604 -0.02421
v 0.02536 0.10046 -0.00693
v 0.02976 0.18647 -0.00762
v 0.03014 0.14706 0.00820
v 0.03014 0.14706 -0.00820
v 0.02976 0.18647 0.00762
v 0.02756 0.14347 -0.00640
v 0.02797 0.10403 0.00883
v 0.02797 0.10403 -0.00883
v 0.02756 0.14347 0.00640
v 0.02571 0.05916 -0.00849
v 0.02536 0.10046 -0.00693
v 0.02536 0.10046 0.00693
v 0.02571 0.05916 0.00849
v 0.00000 0.18103 0.02414
v 0.02976 0.18647 0.00762
v 0.03231 0.19010 0.00986
v 0.00000 0.17736 0.01929
v 0.00000 0.13997 0.02124
v 0.02756 0.14347 0.00640
v 0.03014 0.14706 0.00820
v 0.00000 0.13633 0.01740
v 0.02797 0.10403 0.00883
v 0.00000 0.09529 0.02015
v 0.02536 0.10046 0.00693
v 0.00000 0.09891 0.02409
v 0.00000 0.18103 -0.02414
v 0.03231 0.19010 -0.00986
v 0.02976 0.18647 -0.00762
v 0.00000 0.17736 -0.01929
v 0.00000 0.13997 -0.02124
v 0.02756 0.14347 -0.00640
v 0.00000 0.13633 -0.01740
v 0.03014 0.14706 -0.00820
v 0.00000 0.09529 -0.02015
v 0.02797 0.10403 -0.00883
v 0.02536 0.10046 -0.00693
v 0.00000 0.09891 -0.02409
v 0.03231 0.19010 -0.00986
v 0.02976 0.18647 0.00762
v 0.02976 0.18647 -0.00762
v 0.03231 0.19010 0.00986
v 0.03014 0.14706 0.00820
v 0.02756 0.14347 -0.00640
v 0.03014 0.14706 -0.00820
v 0.02756 0.14347 0.00640
v 0.02797 0.10403 -0.00883
v 0.02536 0.10046 0.00693
v 0.02536 0.10046 -0.00693
v 0.02797 0.10403 0.00883
v 0.00000 0.22023 -0.02321
v 0.03231 0.19010 -0.00986
v 0.00000 0.18103 -0.02414
v 0.03438 0.23125 -0.01016
v -0.03310 0.35590 0.01114
v -0.03275 0.28944 0.00956
v 0.00000 0.35596 0.02171
v 0.00000 0.58346 0.02122
v -0.03510 0.58362 0.01034
v 0.00000 0.28946 0.02318
v -0.04265 0.26439 0.00241
v 0.00000 0.86979 0.02474
v -0.04134 0.81119 0.01139
v 0.00000 0.81080 0.02454
v -0.04785 0.89648 0.01157
v -0.05580 0.89797 -0.00323
v -0.04899 0.81074 0.00323
v -0.05580 0.89797 0.00323
v -0.04899 0.81074 -0.00323
v -0.04241 0.58346 0.00300
v -0.03275 0.28944 -0.00956
v -0.04031 0.35611 -0.00346
v -0.03310 0.35590 -0.01114
v -0.04241 0.58346 -0.00300
v -0.03510 0.58362 -0.01034
v -0.04265 0.26439 -0.00241
v -0.04899 0.81074 -0.00323
v -0.04134 0.81119 -0.01139
v -0.04031 0.35611 -0.00346
v -0.04265 0.26439 0.00241
v -0.04031 0.35611 0.00346
v -0.04265 0.26439 -0.00241
v -0.04241 0.58346 -0.00300
v 0.00000 0.81080 -0.02454
v -0.03510 0.58362 -0.01034
v -0.04134 0.81119 -0.01139
v 0.00000 0.58346 -0.02122
v 0.00000 0.86979 -0.02474
v -0.03310 0.35590 -0.01114
v -0.03589 0.93903 0.00330
v -0.04785 0.89648 0.01157
v -0.02903 0.93537 0.01176
v -0.05580 0.89797 0.00323
v -0.04899 0.81074 0.00323
v -0.04134 0.81119 0.01139
v 0.00000 0.98265 0.00719
v 0.00000 1.00000 0.00342
v -0.03510 0.58362 0.01034
v -0.04241 0.58346 0.00300
v -0.04031 0.35611 0.00346
v -0.03310 0.35590 0.01114
v -0.03275 0.28944 0.00956
v -0.04265 0.26439 0.00241
v 0.00000 0.28946 0.02318
v -0.03275 0.28944 0.00956
v 0.00000 0.26442 0.01248
v -0.04265 0.26439 0.00241
v -0.04785 0.89648 -0.01157
v 0.00000 0.35596 -0.02171
v -0.03275 0.28944 -0.00956
v 0.00000 0.28946 -0.02318
v -0.04785 0.89648 -0.01157
v -0.03589 0.93903 -0.00330
v -0.02903 0.93537 -0.01176
v 0.00000 1.00000 -0.00342
v 0.00000 0.98265 -0.00719
v -0.05580 0.89797 -0.00323
v 0.00000 1.00000 -0.00342
v -0.03589 0.93903 0.00330
v 0.00000 1.00000 0.00342
v -0.03589 0.93903 -0.00330
v -0.05580 0.89797 0.00323
v 0.00000 0.28946 -0.02318
v 0.00000 0.26442 -0.01248
v -0.03275 0.28944 -0.00956
v -0.04265 0.26439 -0.00241
v -0.05580 0.89797 -0.00323
v -0.03814 0.23438 0.01336
v -0.03814 0.23438 -0.01336
v -0.03438 0.23125 0.01016
v -0.03438 0.23125 -0.01016
v 0.00000 0.22221 0.02839
v 0.00000 0.22221 -0.02839
v 0.00000 0.22023 -0.02321
v -0.09389 0.28906 0.01674
v -0.08835 0.26846 0.01779
v -0.11956 0.28564 -0.01204
v -0.09389 0.28906 -0.01674
v -0.12075 0.26984 -0.01192
v -0.08835 0.26846 -0.01779
v -0.04994 0.25054 0.01607
v -0.04994 0.25054 -0.01607
v -0.03810 0.24679 0.01305
v 0.00000 0.23925 0.02254
v -0.03810 0.24679 -0.01305
v 0.00000 0.23925 -0.02254
v 0.00000 0.23620 -0.02070
v -0.13367 0.29966 -0.02097
v -0.12075 0.26984 -0.01192
v -0.13642 0.25775 -0.02086
v -0.11956 0.28564 -0.01204
v -0.14209 0.30259 -0.02228
v -0.12075 0.26984 0.01192
v -0.03810 0.24679 0.01305
v -0.03810 0.24679 -0.01305
v -0.03814 0.23438 -0.01336
v -0.03814 0.23438 0.01336
v -0.11956 0.28564 0.01204
v -0.14736 0.25590 0.02244
v -0.15880 0.25866 -0.02088
v -0.14736 0.25590 -0.02244
v -0.13642 0.25775 0.02086
v -0.13642 0.25775 -0.02086
v -0.12075 0.26984 -0.01192
v 0.00000 0.22023 0.02321
v -0.03231 0.19010 0.00986
v 0.00000 0.18103 0.02414
v -0.03438 0.23125 0.01016
v -0.13367 0.29966 0.02097
v -0.12075 0.26984 0.01192
v -0.11956 0.28564 0.01204
v -0.13642 0.25775 0.02086
v -0.14209 0.30259 0.02228
v -0.14736 0.25590 0.02244
v -0.01638 0.30916 -0.02220
v -0.03250 0.29753 0.02158
v -0.01638 0.30916 0.02220
v 0.00000 0.31384 -0.02385
v 0.00000 0.31384 0.02385
v -0.05612 0.28382 -0.02072
v -0.09389 0.28906 -0.01674
v -0.09389 0.28906 0.01674
v -0.05612 0.28382 0.02072
v -0.11956 0.28564 -0.01204
v -0.11956 0.28564 0.01204
v -0.17218 0.28636 -0.00831
v -0.16374 0.29752 0.01680
v -0.16374 0.29752 -0.01680
v -0.17218 0.28636 0.00831
v -0.15392 0.30201 -0.02083
v -0.16739 0.26509 -0.01674
v -0.15880 0.25866 0.02088
v -0.16739 0.26509 0.01674
v -0.17326 0.27702 0.00834
v -0.17326 0.27702 -0.00834
v -0.15392 0.30201 0.02083
v -0.14209 0.30259 -0.02228
v -0.05612 0.28382 -0.02072
v -0.03250 0.29753 -0.02158
v -0.05612 0.28382 0.02072
v -0.17326 0.27702 0.00834
v -0.16374 0.29752 0.01680
v -0.17218 0.28636 0.00831
v -0.15880 0.25866 0.02088
v -0.15392 0.30201 0.02083
v -0.16739 0.26509 0.01674
v -0.16374 0.29752 -0.01680
v -0.15880 0.25866 -0.02088
v -0.16739 0.26509 -0.01674
v -0.17326 0.27702 -0.00834
v -0.17218 0.28636 -0.00831
v -0.15392 0.30201 -0.02083
v -0.14736 0.25590 -0.02244
v -0.17218 0.28636 -0.00831
v -0.17326 0.27702 0.00834
v -0.17218 0.28636 0.00831
v -0.17326 0.27702 -0.00834
v -0.08835 0.26846 -0.01779
v -0.04895 0.26217 0.02063
v -0.08835 0.26846 0.01779
v -0.04895 0.26217 -0.02063
v -0.12075 0.26984 -0.01192
v -0.14209 0.30259 0.02228
v -0.13367 0.29966 -0.02097
v -0.11956 0.28564 0.01204
v -0.11956 0.28564 -0.01204
v -0.13367 0.29966 0.02097
v -0.12075 0.26984 0.01192
v 0.00000 0.23620 0.02070
v -0.03810 0.24679 0.01305
v -0.12075 0.26984 0.01192
v 0.00000 0.22023 0.02321
v -0.04895 0.26217 0.02063
v -0.04895 0.26217 -0.02063
v -0.04994 0.25054 -0.01607
v -0.04994 0.25054 0.01607
v -0.03438 0.23125 -0.01016
v -0.03231 0.19010 0.00986
v -0.03438 0.23125 0.01016
v -0.03231 0.19010 -0.00986
v -0.02571 0.05916 0.00849
v 0.00000 0.05283 0.02855
v -0.03118 0.04415 0.00820
v 0.00000 0.03918 0.02331
v -0.02859 0.05741 0.01004
v -0.02571 0.05916 -0.00849
v -0.02859 0.05741 -0.01004
v -0.02571 0.05916 0.00849
v -0.02571 0.05916 -0.00849
v -0.02859 0.05741 0.01004
v -0.03368 0.04250 0.00921
v -0.02859 0.05741 0.01004
v -0.02859 0.05741 -0.01004
v -0.03118 0.04415 0.00820
v -0.03118 0.04415 -0.00820
v 0.00000 0.03918 -0.02331
v -0.03118 0.04415 -0.00820
v 0.00000 0.05283 -0.02855
v -0.02859 0.05741 -0.01004
v 0.00000 0.00000 -0.01158
v -0.02950 0.01163 -0.00512
v 0.00000 0.02502 -0.03106
v -0.03906 0.02643 -0.00827
v -0.03368 0.04250 -0.00921
v -0.03368 0.04250 0.00921
v -0.03118 0.04415 -0.00820
v -0.03118 0.04415 0.00820
v -0.03368 0.04250 -0.00921
v -0.02950 0.01163 -0.00512
v 0.00000 0.00000 0.01158
v -0.02950 0.01163 0.00512
v 0.00000 0.00000 -0.01158
v -0.02950 0.01163 0.00512
v 0.00000 0.02502 0.03106
v -0.03906 0.02643 0.00827
v 0.00000 0.00000 0.01158
v -0.03906 0.02643 0.00827
v -0.03906 0.02643 -0.00827
v -0.02950 0.01163 0.00512
v -0.02950 0.01163 -0.00512
v -0.03368 0.04250 0.00921
v -0.03368 0.04250 -0.00921
v -0.03906 0.02643 0.00827
v -0.03906 0.02643 -0.00827
v -0.03906 0.02643 0.00827
v 0.00000 0.02502 0.03106
v -0.03368 0.04250 0.00921
v 0.00000 0.03631 0.02614
v 0.00000 0.02502 -0.03106
v -0.03368 0.04250 -0.00921
v 0.00000 0.03631 -0.02614
v -0.03906 0.02643 -0.00827
v 0.00000 0.17736 0.01929
v -0.03014 0.14706 0.00820
v 0.00000 0.13997 0.02124
v -0.02976 0.18647 0.00762
v 0.00000 0.13633 0.01740
v -0.02797 0.10403 0.00883
v 0.00000 0.09891 0.02409
v -0.02756 0.14347 0.00640
v 0.00000 0.09529 0.02015
v -0.02571 0.05916 0.00849
v 0.00000 0.05604 0.02421
v -0.02536 0.10046 0.00693
v 0.00000 0.17736 -0.01929
v -0.03014 0.14706 -0.00820
v -0.02976 0.18647 -0.00762
v 0.00000 0.13997 -0.02124
v 0.00000 0.13633 -0.01740
v -0.02797 0.10403 -0.00883
v -0.02756 0.14347 -0.00640
v 0.00000 0.09891 -0.02409
v 0.00000 0.09529 -0.02015
v -0.02571 0.05916 -0.00849
v -0.02536 0.10046 -0.00693
v 0.00000 0.05604 -0.02421
v -0.02976 0.18647 -0.00762
v -0.03014 0.14706 0.00820
v -0.02976 0.18647 0.00762
v -0.03014 0.14706 -0.00820
v -0.02756 0.14347 -0.00640
v -0.02797 0.10403 0.00883
v -0.02756 0.14347 0.00640
v -0.02797 0.10403 -0.00883
v -0.02536 0.10046 -0.00693
v -0.02571 0.05916 -0.00849
v -0.02536 0.10046 0.00693
v -0.02571 0.05916 0.00849
v 0.00000 0.18103 0.02414
v -0.02976 0.18647 0.00762
v 0.00000 0.17736 0.01929
v -0.03231 0.19010 0.00986
v 0.00000 0.13997 0.02124
v -0.02756 0.14347 0.00640
v 0.00000 0.13633 0.01740
v -0.03014 0.14706 0.00820
v -0.02797 0.10403 0.00883
v 0.00000 0.09529 0.02015
v 0.00000 0.09891 0.02409
v -0.02536 0.10046 0.00693
v -0.03231 0.19010 -0.00986
v 0.00000 0.18103 -0.02414
v -0.02976 0.18647 -0.00762
v 0.00000 0.17736 -0.01929
v -0.03014 0.14706 -0.00820
v 0.00000 0.13997 -0.02124
v -0.02756 0.14347 -0.00640
v 0.00000 0.13633 -0.01740
v 0.00000 0.09529 -0.02015
v -0.02797 0.10403 -0.00883
v 0.00000 0.09891 -0.02409
v -0.02536 0.10046 -0.00693
v -0.03231 0.19010 0.00986
v -0.03231 0.19010 -0.00986
v -0.02976 0.18647 0.00762
v -0.02976 0.18647 -0.00762
v -0.03014 0.14706 0.00820
v -0.02756 0.14347 -0.00640
v -0.02756 0.14347 0.00640
v -0.03014 0.14706 -0.00820
v -0.02797 0.10403 0.00883
v -0.02797 0.10403 -0.00883
v -0.02536 0.10046 0.00693
v -0.02536 0.10046 -0.00693
v 0.00000 0.22023 -0.02321
v -0.03231 0.19010 -0.00986
v -0.03438 0.23125 -0.01016
v 0.00000 0.18103 -0.02414
vt 0.01965 0.07043
vt 0.02846 0.04875
vt 0.02856 0.07041
vt 0.01965 0.04876
vt 0.01965 0.14455
vt 0.07139 0.26712
vt 0.07418 0.26710
vt 0.07139 0.26712
vt 0.07418 0.26710
vt 0.07418 0.26710
vt 0.01965 0.23785
vt 0.03077 0.21876
vt 0.03253 0.24655
vt 0.01965 0.21863
vt 0.02909 0.14461
vt 0.01965 0.23785
vt 0.02746 0.25922
vt 0.03253 0.24655
vt 0.03253 0.24655
vt 0.02746 0.25922
vt 0.01965 0.27462
vt 0.04386 0.29225
vt 0.04277 0.28144
vt 0.04386 0.29225
vt 0.04171 0.25328
vt 0.04277 0.28144
vt 0.04171 0.25328
vt 0.04137 0.22512
vt 0.04053 0.25330
vt 0.04171 0.25328
vt 0.04016 0.21686
vt 0.04021 0.22509
vt 0.04175 0.21375
vt 0.01965 0.27462
vt 0.01965 0.23785
vt 0.02746 0.25922
vt 0.03253 0.24655
vt 0.02746 0.25922
vt 0.03253 0.24655
vt 0.04277 0.28144
vt 0.04137 0.22512
vt 0.04175 0.21375
vt 0.04137 0.22512
vt 0.04175 0.21375
vt 0.01965 0.21863
vt 0.02909 0.14461
vt 0.01965 0.14455
vt 0.03077 0.21876
vt 0.02856 0.07041
vt 0.01965 0.07043
vt 0.04259 0.29207
vt 0.04154 0.28150
vt 0.04277 0.28144
vt 0.04066 0.29734
vt 0.03956 0.29688
vt 0.03489 0.30489
vt 0.03489 0.30274
vt 0.04386 0.29225
vt 0.04053 0.25330
vt 0.04171 0.25328
vt 0.04021 0.22509
vt 0.04137 0.22512
vt 0.04016 0.21686
vt 0.04175 0.21375
vt 0.07139 0.27862
vt 0.07139 0.26712
vt 0.07353 0.27861
vt 0.07418 0.26710
vt 0.01965 0.23785
vt 0.03253 0.24655
vt 0.02846 0.04875
vt 0.01965 0.04876
vt 0.04066 0.29734
vt 0.04259 0.29207
vt 0.03956 0.29688
vt 0.04386 0.29225
vt 0.04154 0.28150
vt 0.03489 0.30274
vt 0.03489 0.30489
vt 0.04066 0.29734
vt 0.03489 0.30489
vt 0.04386 0.29225
vt 0.04066 0.29734
vt 0.04386 0.29225
vt 0.07139 0.27862
vt 0.07353 0.27861
vt 0.07139 0.26712
vt 0.07418 0.26710
vt 0.03489 0.30489
vt 0.07169 0.13445
vt 0.07169 0.13445
vt 0.07128 0.13204
vt 0.07128 0.13204
vt 0.06752 0.12510
vt 0.06752 0.12358
vt 0.06752 0.12510
vt 0.07108 0.18297
vt 0.06752 0.16584
vt 0.06752 0.18239
vt 0.07288 0.15581
vt 0.07366 0.17244
vt 0.07108 0.18297
vt 0.07288 0.15581
vt 0.06752 0.15039
vt 0.07366 0.17244
vt 0.06931 0.19191
vt 0.06931 0.19191
vt 0.07779 0.17646
vt 0.07719 0.16064
vt 0.06752 0.16584
vt 0.07366 0.17244
vt 0.07108 0.18297
vt 0.07366 0.17244
vt 0.07288 0.15581
vt 0.06752 0.15039
vt 0.07288 0.15581
vt 0.07719 0.16064
vt 0.07299 0.14687
vt 0.06752 0.13819
vt 0.07299 0.14687
vt 0.08073 0.16170
vt 0.08060 0.17383
vt 0.07299 0.14687
vt 0.07299 0.14687
vt 0.07169 0.14399
vt 0.06752 0.13819
vt 0.06752 0.13585
vt 0.07169 0.14399
vt 0.06752 0.13819
vt 0.08215 0.18461
vt 0.08073 0.16170
vt 0.08060 0.17383
vt 0.08245 0.15241
vt 0.08307 0.18686
vt 0.08364 0.15098
vt 0.07779 0.17646
vt 0.08073 0.16170
vt 0.07169 0.13445
vt 0.07169 0.13445
vt 0.07169 0.14399
vt 0.07169 0.14399
vt 0.08060 0.17383
vt 0.06752 0.12358
vt 0.08364 0.15098
vt 0.08364 0.15098
vt 0.08245 0.15241
vt 0.08490 0.15311
vt 0.08245 0.15241
vt 0.08073 0.16170
vt 0.17044 0.04894
vt 0.17557 0.04369
vt 0.17590 0.05087
vt 0.17044 0.04211
vt 0.08215 0.18461
vt 0.08073 0.16170
vt 0.08245 0.15241
vt 0.08060 0.17383
vt 0.08307 0.18686
vt 0.06752 0.19550
vt 0.06931 0.19191
vt 0.06931 0.19191
vt 0.06752 0.19550
vt 0.07108 0.18297
vt 0.07108 0.18297
vt 0.07299 0.14687
vt 0.06752 0.13819
vt 0.07299 0.14687
vt 0.07366 0.17244
vt 0.07779 0.17646
vt 0.07779 0.17646
vt 0.07366 0.17244
vt 0.08060 0.17383
vt 0.08060 0.17383
vt 0.08636 0.17439
vt 0.08544 0.18296
vt 0.08636 0.17439
vt 0.08544 0.18296
vt 0.08584 0.15804
vt 0.08584 0.15804
vt 0.08490 0.15311
vt 0.08648 0.16722
vt 0.08436 0.18641
vt 0.08436 0.18641
vt 0.08307 0.18686
vt 0.07366 0.17244
vt 0.07366 0.17244
vt 0.08544 0.18296
vt 0.08648 0.16722
vt 0.08636 0.17439
vt 0.08584 0.15804
vt 0.08490 0.15311
vt 0.06752 0.13585
vt 0.06752 0.13585
vt 0.07169 0.13445
vt 0.07169 0.14399
vt 0.07169 0.13445
vt 0.06752 0.12510
vt 0.07169 0.14399
vt 0.08544 0.18296
vt 0.08490 0.15311
vt 0.08436 0.18641
vt 0.08584 0.15804
vt 0.08648 0.16722
vt 0.06931 0.19191
vt 0.06752 0.19550
vt 0.06752 0.18239
vt 0.06931 0.19191
vt 0.07108 0.18297
vt 0.08636 0.17439
vt 0.08636 0.17439
vt 0.08648 0.16722
vt 0.08648 0.16722
vt 0.07719 0.16064
vt 0.07288 0.15581
vt 0.07719 0.16064
vt 0.08073 0.16170
vt 0.07288 0.15581
vt 0.08636 0.17439
vt 0.08215 0.18461
vt 0.08307 0.18686
vt 0.08060 0.17383
vt 0.08215 0.18461
vt 0.08648 0.16722
vt 0.08073 0.16170
vt 0.06752 0.13585
vt 0.07169 0.13445
vt 0.07169 0.14399
vt 0.07169 0.13445
vt 0.06752 0.12510
vt 0.08073 0.16170
vt 0.08060 0.17383
vt 0.07299 0.14687
vt 0.07299 0.14687
vt 0.07288 0.15581
vt 0.07288 0.15581
vt 0.17590 0.05087
vt 0.17557 0.04369
vt 0.17557 0.04369
vt 0.17590 0.05087
vt 0.08364 0.15098
vt 0.08436 0.18641
vt 0.06752 0.19550
vt 0.06564 0.16938
vt 0.08230 0.17018
vt 0.08062 0.17120
vt 0.08230 0.17018
vt 0.06564 0.16751
vt 0.06564 0.16751
vt 0.08381 0.16246
vt 0.08230 0.17018
vt 0.06564 0.15956
vt 0.08230 0.17018
vt 0.06564 0.16751
vt 0.06564 0.16938
vt 0.08062 0.17120
vt 0.08230 0.17018
vt 0.08230 0.17018
vt 0.08062 0.17120
vt 0.08230 0.17018
vt 0.08062 0.17120
vt 0.06564 0.15789
vt 0.08526 0.16149
vt 0.08381 0.16246
vt 0.06564 0.15956
vt 0.08381 0.16246
vt 0.08230 0.17018
vt 0.08381 0.16246
vt 0.08230 0.17018
vt 0.08381 0.16246
vt 0.06564 0.16751
vt 0.08230 0.17018
vt 0.08381 0.16246
vt 0.06564 0.15956
vt 0.06564 0.15131
vt 0.08840 0.15213
vt 0.08282 0.14351
vt 0.06564 0.13674
vt 0.08526 0.16149
vt 0.08526 0.16149
vt 0.08381 0.16246
vt 0.08381 0.16246
vt 0.06564 0.15789
vt 0.08381 0.16246
vt 0.08526 0.16149
vt 0.08381 0.16246
vt 0.06564 0.15956
vt 0.06564 0.13674
vt 0.08282 0.14351
vt 0.06564 0.13674
vt 0.08282 0.14351
vt 0.06564 0.15131
vt 0.08282 0.14351
vt 0.08840 0.15213
vt 0.06564 0.13674
vt 0.08840 0.15213
vt 0.08282 0.14351
vt 0.08840 0.15213
vt 0.08282 0.14351
vt 0.08526 0.16149
vt 0.08840 0.15213
vt 0.08526 0.16149
vt 0.08840 0.15213
vt 0.06564 0.15131
vt 0.08526 0.16149
vt 0.06564 0.15789
vt 0.08840 0.15213
vt 0.08526 0.16149
vt 0.06564 0.15131
vt 0.06564 0.15789
vt 0.08840 0.15213
vt 0.17044 0.04146
vt 0.17523 0.03618
vt 0.17554 0.04304
vt 0.17044 0.03495
vt 0.17044 0.03431
vt 0.17488 0.02868
vt 0.17520 0.03554
vt 0.17044 0.02779
vt 0.17044 0.02715
vt 0.17452 0.02085
vt 0.17485 0.02804
vt 0.17044 0.02031
vt 0.17044 0.04146
vt 0.17523 0.03618
vt 0.17044 0.03495
vt 0.17554 0.04304
vt 0.17044 0.03431
vt 0.17488 0.02868
vt 0.17044 0.02779
vt 0.17520 0.03554
vt 0.17044 0.02715
vt 0.17452 0.02085
vt 0.17044 0.02031
vt 0.17485 0.02804
vt 0.17554 0.04304
vt 0.17523 0.03618
vt 0.17523 0.03618
vt 0.17554 0.04304
vt 0.17520 0.03554
vt 0.17488 0.02868
vt 0.17488 0.02868
vt 0.17520 0.03554
vt 0.17452 0.02085
vt 0.17485 0.02804
vt 0.17485 0.02804
vt 0.17452 0.02085
vt 0.16979 0.02461
vt 0.17374 0.02533
vt 0.17376 0.02584
vt 0.16979 0.02411
vt 0.16979 0.01906
vt 0.17347 0.01952
vt 0.17350 0.02002
vt 0.16979 0.01856
vt 0.17323 0.01420
vt 0.16979 0.01301
vt 0.17321 0.01370
vt 0.16979 0.01350
vt 0.16979 0.02461
vt 0.17376 0.02584
vt 0.17374 0.02533
vt 0.16979 0.02411
vt 0.16979 0.01906
vt 0.17347 0.01952
vt 0.16979 0.01856
vt 0.17350 0.02002
vt 0.16979 0.01301
vt 0.17323 0.01420
vt 0.17321 0.01370
vt 0.16979 0.01350
vt 0.17376 0.02584
vt 0.17374 0.02533
vt 0.17374 0.02533
vt 0.17376 0.02584
vt 0.17350 0.02002
vt 0.17347 0.01952
vt 0.17350 0.02002
vt 0.17347 0.01952
vt 0.17323 0.01420
vt 0.17321 0.01370
vt 0.17321 0.01370
vt 0.17323 0.01420
vt 0.17044 0.04894
vt 0.17557 0.04369
vt 0.17044 0.04211
vt 0.17590 0.05087
vt 0.02856 0.07041
vt 0.02846 0.04875
vt 0.01965 0.07043
vt 0.01965 0.14455
vt 0.02909 0.14461
vt 0.01965 0.04876
vt 0.07418 0.26710
vt 0.01965 0.23785
vt 0.03077 0.21876
vt 0.01965 0.21863
vt 0.03253 0.24655
vt 0.04386 0.29225
vt 0.04277 0.28144
vt 0.04386 0.29225
vt 0.04277 0.28144
vt 0.04171 0.25328
vt 0.04016 0.21686
vt 0.04137 0.22512
vt 0.04021 0.22509
vt 0.04171 0.25328
vt 0.04053 0.25330
vt 0.04175 0.21375
vt 0.04277 0.28144
vt 0.04154 0.28150
vt 0.04137 0.22512
vt 0.04175 0.21375
vt 0.04137 0.22512
vt 0.04175 0.21375
vt 0.04171 0.25328
vt 0.01965 0.21863
vt 0.02909 0.14461
vt 0.03077 0.21876
vt 0.01965 0.14455
vt 0.01965 0.23785
vt 0.02856 0.07041
vt 0.04066 0.29734
vt 0.04259 0.29207
vt 0.03956 0.29688
vt 0.04386 0.29225
vt 0.04277 0.28144
vt 0.04154 0.28150
vt 0.03489 0.30274
vt 0.03489 0.30489
vt 0.04053 0.25330
vt 0.04171 0.25328
vt 0.04137 0.22512
vt 0.04021 0.22509
vt 0.04016 0.21686
vt 0.04175 0.21375
vt 0.07139 0.27862
vt 0.07353 0.27861
vt 0.07139 0.26712
vt 0.07418 0.26710
vt 0.03253 0.24655
vt 0.01965 0.07043
vt 0.02846 0.04875
vt 0.01965 0.04876
vt 0.04259 0.29207
vt 0.04066 0.29734
vt 0.03956 0.29688
vt 0.03489 0.30489
vt 0.03489 0.30274
vt 0.04386 0.29225
vt 0.03489 0.30489
vt 0.04066 0.29734
vt 0.03489 0.30489
vt 0.04066 0.29734
vt 0.04386 0.29225
vt 0.07139 0.27862
vt 0.07139 0.26712
vt 0.07353 0.27861
vt 0.07418 0.26710
vt 0.04386 0.29225
vt 0.07169 0.13445
vt 0.07169 0.13445
vt 0.07128 0.13204
vt 0.07128 0.13204
vt 0.06752 0.12510
vt 0.06752 0.12510
vt 0.06752 0.12358
vt 0.07779 0.17646
vt 0.07719 0.16064
vt 0.08060 0.17383
vt 0.07779 0.17646
vt 0.08073 0.16170
vt 0.07719 0.16064
vt 0.07299 0.14687
vt 0.07299 0.14687
vt 0.07169 0.14399
vt 0.06752 0.13819
vt 0.07169 0.14399
vt 0.06752 0.13819
vt 0.06752 0.13585
vt 0.08215 0.18461
vt 0.08073 0.16170
vt 0.08245 0.15241
vt 0.08060 0.17383
vt 0.08307 0.18686
vt 0.08073 0.16170
vt 0.07169 0.14399
vt 0.07169 0.14399
vt 0.07169 0.13445
vt 0.07169 0.13445
vt 0.08060 0.17383
vt 0.08364 0.15098
vt 0.08490 0.15311
vt 0.08364 0.15098
vt 0.08245 0.15241
vt 0.08245 0.15241
vt 0.08073 0.16170
vt 0.17044 0.04894
vt 0.17557 0.04369
vt 0.17044 0.04211
vt 0.17590 0.05087
vt 0.08215 0.18461
vt 0.08073 0.16170
vt 0.08060 0.17383
vt 0.08245 0.15241
vt 0.08307 0.18686
vt 0.08364 0.15098
vt 0.06931 0.19191
vt 0.07108 0.18297
vt 0.06931 0.19191
vt 0.06752 0.19550
vt 0.06752 0.19550
vt 0.07366 0.17244
vt 0.07779 0.17646
vt 0.07779 0.17646
vt 0.07366 0.17244
vt 0.08060 0.17383
vt 0.08060 0.17383
vt 0.08636 0.17439
vt 0.08544 0.18296
vt 0.08544 0.18296
vt 0.08636 0.17439
vt 0.08436 0.18641
vt 0.08584 0.15804
vt 0.08490 0.15311
vt 0.08584 0.15804
vt 0.08648 0.16722
vt 0.08648 0.16722
vt 0.08436 0.18641
vt 0.08307 0.18686
vt 0.07366 0.17244
vt 0.07108 0.18297
vt 0.07366 0.17244
vt 0.08648 0.16722
vt 0.08544 0.18296
vt 0.08636 0.17439
vt 0.08490 0.15311
vt 0.08436 0.18641
vt 0.08584 0.15804
vt 0.08544 0.18296
vt 0.08490 0.15311
vt 0.08584 0.15804
vt 0.08648 0.16722
vt 0.08636 0.17439
vt 0.08436 0.18641
vt 0.08364 0.15098
vt 0.08636 0.17439
vt 0.08648 0.16722
vt 0.08636 0.17439
vt 0.08648 0.16722
vt 0.07719 0.16064
vt 0.07288 0.15581
vt 0.07719 0.16064
vt 0.07288 0.15581
vt 0.08073 0.16170
vt 0.08307 0.18686
vt 0.08215 0.18461
vt 0.08060 0.17383
vt 0.08060 0.17383
vt 0.08215 0.18461
vt 0.08073 0.16170
vt 0.06752 0.13585
vt 0.07169 0.14399
vt 0.08073 0.16170
vt 0.06752 0.12358
vt 0.07288 0.15581
vt 0.07288 0.15581
vt 0.07299 0.14687
vt 0.07299 0.14687
vt 0.17590 0.05087
vt 0.17557 0.04369
vt 0.17590 0.05087
vt 0.17557 0.04369
vt 0.08062 0.17120
vt 0.06564 0.16751
vt 0.08381 0.16246
vt 0.06564 0.15956
vt 0.08230 0.17018
vt 0.08062 0.17120
vt 0.08230 0.17018
vt 0.08062 0.17120
vt 0.08062 0.17120
vt 0.08230 0.17018
vt 0.08526 0.16149
vt 0.08230 0.17018
vt 0.08230 0.17018
vt 0.08381 0.16246
vt 0.08381 0.16246
vt 0.06564 0.15956
vt 0.08381 0.16246
vt 0.06564 0.16751
vt 0.08230 0.17018
vt 0.06564 0.13674
vt 0.08282 0.14351
vt 0.06564 0.15131
vt 0.08840 0.15213
vt 0.08526 0.16149
vt 0.08526 0.16149
vt 0.08381 0.16246
vt 0.08381 0.16246
vt 0.08526 0.16149
vt 0.08282 0.14351
vt 0.06564 0.13674
vt 0.08282 0.14351
vt 0.06564 0.13674
vt 0.08282 0.14351
vt 0.06564 0.15131
vt 0.08840 0.15213
vt 0.06564 0.13674
vt 0.08840 0.15213
vt 0.08840 0.15213
vt 0.08282 0.14351
vt 0.08282 0.14351
vt 0.08526 0.16149
vt 0.08526 0.16149
vt 0.08840 0.15213
vt 0.08840 0.15213
vt 0.08840 0.15213
vt 0.06564 0.15131
vt 0.08526 0.16149
vt 0.06564 0.15789
vt 0.06564 0.15131
vt 0.08526 0.16149
vt 0.06564 0.15789
vt 0.08840 0.15213
vt 0.17044 0.04146
vt 0.17523 0.03618
vt 0.17044 0.03495
vt 0.17554 0.04304
vt 0.17044 0.03431
vt 0.17488 0.02868
vt 0.17044 0.02779
vt 0.17520 0.03554
vt 0.17044 0.02715
vt 0.17452 0.02085
vt 0.17044 0.02031
vt 0.17485 0.02804
vt 0.17044 0.04146
vt 0.17523 0.03618
vt 0.17554 0.04304
vt 0.17044 0.03495
vt 0.17044 0.03431
vt 0.17488 0.02868
vt 0.17520 0.03554
vt 0.17044 0.02779
vt 0.17044 0.02715
vt 0.17452 0.02085
vt 0.17485 0.02804
vt 0.17044 0.02031
vt 0.17554 0.04304
vt 0.17523 0.03618
vt 0.17554 0.04304
vt 0.17523 0.03618
vt 0.17520 0.03554
vt 0.17488 0.02868
vt 0.17520 0.03554
vt 0.17488 0.02868
vt 0.17485 0.02804
vt 0.17452 0.02085
vt 0.17485 0.02804
vt 0.17452 0.02085
vt 0.16979 0.02461
vt 0.17374 0.02533
vt 0.16979 0.02411
vt 0.17376 0.02584
vt 0.16979 0.01906
vt 0.17347 0.01952
vt 0.16979 0.01856
vt 0.17350 0.02002
vt 0.17323 0.01420
vt 0.16979 0.01301
vt 0.16979 0.01350
vt 0.17321 0.01370
vt 0.17376 0.02584
vt 0.16979 0.02461
vt 0.17374 0.02533
vt 0.16979 0.02411
vt 0.17350 0.02002
vt 0.16979 0.01906
vt 0.17347 0.01952
vt 0.16979 0.01856
vt 0.16979 0.01301
vt 0.17323 0.01420
vt 0.16979 0.01350
vt 0.17321 0.01370
vt 0.17376 0.02584
vt 0.17376 0.02584
vt 0.17374 0.02533
vt 0.17374 0.02533
vt 0.17350 0.02002
vt 0.17347 0.01952
vt 0.17347 0.01952
vt 0.17350 0.02002
vt 0.17323 0.01420
vt 0.17323 0.01420
vt 0.17321 0.01370
vt 0.17321 0.01370
vt 0.17044 0.04894
vt 0.17557 0.04369
vt 0.17590 0.05087
vt 0.17044 0.04211
vn 0.3225 -0.0001 0.9466
vn 0.4706 -0.0914 0.8776
vn 0.3225 -0.0001 0.9466
vn 0.3210 -0.1308 0.9380
vn 0.3000 -0.0059 0.9539
vn 0.0000 -1.0000 -0.0000
vn -0.0008 -1.0000 -0.0000
vn 0.0000 -1.0000 -0.0000
vn 0.0008 -1.0000 -0.0000
vn -0.0008 -1.0000 -0.0000
vn 0.2874 -0.0155 0.9577
vn 0.2935 -0.0144 0.9559
vn 0.2874 -0.0155 0.9577
vn 0.2937 -0.0144 0.9558
vn 0.3000 -0.0060 0.9539
vn 0.0000 0.1315 -0.9913
vn 0.1446 0.1301 -0.9809
vn 0.1446 0.1301 -0.9809
vn -0.1446 0.1301 -0.9809
vn -0.1446 0.1301 -0.9809
vn 0.0000 0.1315 -0.9913
vn 0.9970 -0.0778 -0.0000
vn 0.9986 -0.0534 -0.0000
vn 0.9970 -0.0778 -0.0000
vn 0.9998 -0.0191 -0.0000
vn 0.9986 -0.0534 -0.0000
vn 0.9998 -0.0191 -0.0000
vn 0.6861 -0.0045 -0.7275
vn 0.7189 -0.0134 -0.6950
vn 0.7189 -0.0134 -0.6950
vn 0.4706 -0.0914 -0.8776
vn 0.6855 -0.0045 -0.7281
vn 0.3953 -0.2032 -0.8958
vn -0.0000 0.1315 0.9913
vn -0.0000 0.1315 0.9913
vn 0.1446 0.1301 0.9809
vn 0.1446 0.1301 0.9809
vn -0.1446 0.1301 0.9809
vn -0.1446 0.1301 0.9809
vn 0.7231 -0.0395 -0.6896
vn 1.0000 0.0081 -0.0000
vn 0.9997 0.0255 -0.0000
vn 1.0000 0.0081 -0.0000
vn 0.9997 0.0255 -0.0000
vn 0.2937 -0.0144 -0.9558
vn 0.3000 -0.0060 -0.9539
vn 0.3000 -0.0059 -0.9539
vn 0.2935 -0.0144 -0.9559
vn 0.3225 -0.0001 -0.9466
vn 0.3225 -0.0001 -0.9466
vn 0.7067 0.1333 0.6948
vn 0.7231 -0.0396 0.6896
vn 0.7231 -0.0395 0.6896
vn 0.5731 0.3211 0.7540
vn 0.5742 0.3211 0.7531
vn 0.4777 0.3202 0.8181
vn 0.4777 0.3202 0.8181
vn 0.7069 0.1327 0.6948
vn 0.7189 -0.0134 0.6950
vn 0.7189 -0.0134 0.6950
vn 0.6855 -0.0045 0.7281
vn 0.6861 -0.0045 0.7275
vn 0.4706 -0.0914 0.8776
vn 0.3953 -0.2032 0.8958
vn 0.3210 -0.1308 0.9380
vn 0.2884 -0.2704 0.9185
vn 0.4706 -0.0914 0.8776
vn 0.3953 -0.2032 0.8958
vn 0.2874 -0.0155 -0.9577
vn 0.2874 -0.0155 -0.9577
vn 0.4706 -0.0914 -0.8776
vn 0.3210 -0.1308 -0.9380
vn 0.5731 0.3211 -0.7540
vn 0.7067 0.1333 -0.6948
vn 0.5742 0.3211 -0.7531
vn 0.7069 0.1327 -0.6948
vn 0.7231 -0.0396 -0.6896
vn 0.4777 0.3202 -0.8181
vn 0.8618 0.5073 -0.0000
vn 0.8815 0.4722 -0.0000
vn 0.8618 0.5073 -0.0000
vn 0.8998 0.4363 -0.0000
vn 0.8815 0.4722 -0.0000
vn 0.8998 0.4363 -0.0000
vn 0.3210 -0.1308 -0.9380
vn 0.4706 -0.0914 -0.8776
vn 0.2884 -0.2704 -0.9185
vn 0.3953 -0.2032 -0.8958
vn 0.4777 0.3202 -0.8181
vn 0.5327 -0.8281 -0.1745
vn 0.5327 -0.8281 0.1745
vn 0.5338 -0.8277 0.1730
vn 0.5338 -0.8277 -0.1730
vn 0.4029 -0.8503 0.3385
vn 0.4029 -0.8503 0.3385
vn 0.4029 -0.8503 -0.3385
vn 0.1357 0.1420 -0.9805
vn -0.0000 0.0227 -0.9997
vn 0.0000 0.1466 -0.9892
vn -0.1483 -0.1371 -0.9794
vn -0.1156 0.0014 -0.9933
vn -0.1357 0.1420 -0.9805
vn 0.1483 -0.1371 -0.9794
vn -0.0000 -0.2040 -0.9790
vn 0.1156 0.0014 -0.9933
vn 0.1440 0.1508 -0.9780
vn -0.1440 0.1508 -0.9780
vn 0.1427 0.0006 -0.9898
vn 0.1239 -0.0010 -0.9923
vn 0.0000 0.0227 0.9997
vn 0.1156 0.0014 0.9933
vn 0.1357 0.1420 0.9805
vn -0.1156 0.0014 0.9933
vn -0.1483 -0.1371 0.9794
vn 0.0000 -0.2040 0.9790
vn 0.1483 -0.1371 0.9794
vn 0.1239 -0.0010 0.9923
vn -0.1807 -0.3079 0.9341
vn 0.0000 -0.3131 0.9497
vn 0.1807 -0.3079 0.9341
vn 0.1793 0.0038 -0.9838
vn 0.1793 0.0038 -0.9838
vn 0.3040 -0.9467 -0.1061
vn 0.3040 -0.9467 0.1061
vn 0.2994 -0.9080 0.2929
vn 0.2833 -0.8336 0.4742
vn 0.2833 -0.8336 0.4742
vn 0.2994 -0.9080 -0.2929
vn 0.2833 -0.8336 -0.4742
vn -0.2740 -0.0216 -0.9615
vn -0.5124 -0.0383 -0.8579
vn -0.5124 -0.0383 -0.8579
vn -0.2756 -0.0217 -0.9610
vn -0.0071 0.0023 -1.0000
vn -0.0023 0.0028 -1.0000
vn 0.1427 0.0006 0.9898
vn 0.1793 0.0038 0.9838
vn 1.0000 0.0029 -0.0000
vn 1.0000 0.0029 -0.0000
vn 1.0000 0.0029 -0.0000
vn 1.0000 0.0029 -0.0000
vn 0.1793 0.0038 0.9838
vn 0.4029 -0.8503 -0.3385
vn 0.0353 -0.9994 -0.0000
vn 0.0353 -0.9994 -0.0000
vn -0.3554 -0.9347 -0.0000
vn 0.3935 -0.9193 -0.0000
vn -0.3554 -0.9347 -0.0000
vn -0.6107 -0.7918 -0.0000
vn 0.3797 -0.0026 0.9251
vn 0.3797 -0.0026 0.9251
vn 0.3797 -0.0026 0.9251
vn 0.3797 -0.0026 0.9251
vn -0.2740 -0.0216 0.9615
vn -0.5124 -0.0383 0.8579
vn -0.2756 -0.0217 0.9610
vn -0.5124 -0.0383 0.8579
vn -0.0071 0.0023 1.0000
vn 0.2743 0.9616 -0.0000
vn 0.4300 0.9028 -0.0000
vn 0.4300 0.9028 -0.0000
vn 0.2743 0.9616 -0.0000
vn 0.5451 0.8383 -0.0000
vn 0.5451 0.8383 -0.0000
vn 0.1807 -0.3079 -0.9341
vn -0.0000 -0.3131 -0.9497
vn -0.1807 -0.3079 -0.9341
vn -0.1374 0.9905 -0.0000
vn -0.0152 0.9999 -0.0000
vn -0.0152 0.9999 -0.0000
vn -0.1374 0.9905 -0.0000
vn 0.1323 0.9912 -0.0000
vn 0.1323 0.9912 -0.0000
vn 0.7973 0.6036 -0.0000
vn 0.5639 0.8258 -0.0000
vn 0.7973 0.6036 -0.0000
vn 0.5639 0.8258 -0.0000
vn 0.7187 -0.6954 -0.0000
vn 0.7187 -0.6954 -0.0000
vn 0.3935 -0.9193 -0.0000
vn 0.8972 -0.4415 -0.0000
vn 0.2059 0.9786 -0.0000
vn 0.2059 0.9786 -0.0000
vn -0.1410 0.9900 -0.0000
vn 0.5022 0.8647 -0.0000
vn 0.5022 0.8647 -0.0000
vn 0.5052 0.0567 0.8611
vn 0.7579 0.0853 0.6468
vn 0.7579 0.0853 0.6468
vn 0.5094 0.0572 0.8587
vn 0.2358 0.0279 0.9714
vn 0.2833 -0.8336 -0.4742
vn 0.0000 0.2902 -0.9570
vn -0.1944 0.2847 -0.9387
vn -0.1944 0.2847 -0.9387
vn 0.1944 0.2847 -0.9387
vn 0.0000 0.2902 -0.9570
vn 0.1944 0.2847 -0.9387
vn 0.5052 0.0567 -0.8611
vn 0.2358 0.0279 -0.9714
vn 0.2337 0.0276 -0.9719
vn 0.5094 0.0572 -0.8587
vn 0.7579 0.0853 -0.6468
vn 0.1440 0.1508 0.9780
vn -0.0000 0.1524 0.9883
vn -0.0000 0.1466 0.9892
vn -0.1440 0.1508 0.9780
vn -0.1357 0.1420 0.9805
vn 0.9934 0.1150 -0.0000
vn 0.9934 0.1150 -0.0000
vn 0.9934 0.1150 -0.0000
vn 0.9934 0.1150 -0.0000
vn 0.1049 -0.9945 -0.0000
vn 0.1576 -0.9875 -0.0000
vn 0.1049 -0.9945 -0.0000
vn 0.0424 -0.9991 -0.0000
vn 0.1576 -0.9875 -0.0000
vn 0.7579 0.0853 -0.6468
vn -0.4915 0.8709 -0.0000
vn -0.1410 0.9900 -0.0000
vn -0.7048 0.7094 -0.0000
vn -0.4915 0.8709 -0.0000
vn 0.8972 -0.4415 -0.0000
vn 0.0424 -0.9991 -0.0000
vn 0.0000 0.2902 0.9570
vn 0.1944 0.2847 0.9387
vn 0.1944 0.2847 0.9387
vn -0.1944 0.2847 0.9387
vn 0.0000 0.2902 0.9570
vn -0.6107 -0.7918 -0.0000
vn -0.7048 0.7094 -0.0000
vn 0.9964 0.0849 -0.0000
vn 0.9964 0.0849 -0.0000
vn 0.9964 0.0849 -0.0000
vn 0.9964 0.0849 -0.0000
vn 0.9987 -0.0503 -0.0000
vn 0.9987 -0.0503 -0.0000
vn 0.9987 -0.0503 -0.0000
vn 0.9987 -0.0503 -0.0000
vn -0.0023 0.0028 1.0000
vn 0.2337 0.0276 0.9719
vn 0.0000 0.1524 -0.9883
vn 0.0000 0.8206 0.5715
vn 0.2370 0.7972 0.5552
vn 0.2370 0.7972 0.5552
vn -0.2370 0.7972 0.5552
vn 0.0000 0.8206 0.5715
vn 0.5037 -0.1741 0.8461
vn 0.5037 -0.1741 0.8461
vn 0.5037 -0.1741 0.8461
vn 0.5037 -0.1741 0.8461
vn 0.2370 0.7972 -0.5552
vn -0.0000 0.8206 -0.5715
vn -0.0000 0.8206 -0.5715
vn 0.2370 0.7972 -0.5552
vn -0.2370 0.7972 -0.5552
vn 0.5207 0.8538 -0.0000
vn 0.5207 0.8538 -0.0000
vn 0.5207 0.8538 -0.0000
vn 0.5207 0.8538 -0.0000
vn 0.0000 0.7148 0.6993
vn 0.2171 0.6978 0.6826
vn 0.2171 0.6978 0.6826
vn 0.0000 0.7148 0.6993
vn -0.2171 0.6978 0.6826
vn 0.9814 0.1921 -0.0000
vn 0.9814 0.1921 -0.0000
vn 0.9814 0.1921 -0.0000
vn 0.9814 0.1921 -0.0000
vn 0.5037 -0.1741 -0.8461
vn 0.5037 -0.1741 -0.8461
vn 0.5037 -0.1741 -0.8461
vn 0.5037 -0.1741 -0.8461
vn 0.4168 -0.5227 -0.7437
vn 0.4168 -0.5227 -0.7437
vn 0.4168 -0.5227 -0.7437
vn 0.4168 -0.5227 -0.7437
vn 0.5530 0.8332 -0.0000
vn 0.5530 0.8332 -0.0000
vn 0.5530 0.8332 -0.0000
vn 0.5530 0.8332 -0.0000
vn -0.0000 0.7148 -0.6993
vn 0.2171 0.6978 -0.6826
vn 0.2171 0.6978 -0.6826
vn -0.2171 0.6978 -0.6826
vn -0.0000 0.7148 -0.6993
vn 0.3668 -0.9303 -0.0000
vn 0.3668 -0.9303 -0.0000
vn 0.3668 -0.9303 -0.0000
vn 0.3668 -0.9303 -0.0000
vn 0.4168 -0.5227 0.7437
vn 0.4168 -0.5227 0.7437
vn 0.4168 -0.5227 0.7437
vn 0.4168 -0.5227 0.7437
vn 0.8399 -0.5427 -0.0000
vn 0.8399 -0.5427 -0.0000
vn 0.8399 -0.5427 -0.0000
vn 0.8399 -0.5427 -0.0000
vn 0.9482 0.3178 -0.0000
vn 0.9482 0.3178 -0.0000
vn 0.9482 0.3178 -0.0000
vn 0.9482 0.3178 -0.0000
vn 0.4507 0.2145 0.8665
vn 0.4507 0.2145 0.8665
vn 0.4507 0.2145 0.8665
vn 0.4507 0.2145 0.8665
vn 0.4507 0.2145 -0.8665
vn 0.4507 0.2145 -0.8665
vn 0.4507 0.2145 -0.8665
vn 0.4507 0.2145 -0.8665
vn 0.3738 0.0323 0.9270
vn 0.3738 0.0323 0.9270
vn 0.3738 0.0323 0.9270
vn 0.3738 0.0323 0.9270
vn 0.4050 0.1099 0.9077
vn 0.4050 0.1099 0.9077
vn 0.4050 0.1099 0.9077
vn 0.4050 0.1099 0.9077
vn 0.4844 0.0630 0.8726
vn 0.4844 0.0630 0.8726
vn 0.4844 0.0630 0.8726
vn 0.4844 0.0630 0.8726
vn 0.3738 0.0323 -0.9270
vn 0.3738 0.0323 -0.9270
vn 0.3738 0.0323 -0.9270
vn 0.3738 0.0323 -0.9270
vn 0.4050 0.1099 -0.9077
vn 0.4050 0.1099 -0.9077
vn 0.4050 0.1099 -0.9077
vn 0.4050 0.1099 -0.9077
vn 0.4844 0.0630 -0.8726
vn 0.4844 0.0630 -0.8726
vn 0.4844 0.0630 -0.8726
vn 0.4844 0.0630 -0.8726
vn 1.0000 0.0096 -0.0000
vn 1.0000 0.0096 -0.0000
vn 1.0000 0.0096 -0.0000
vn 1.0000 0.0096 -0.0000
vn 0.9999 0.0103 -0.0000
vn 0.9999 0.0103 -0.0000
vn 0.9999 0.0103 -0.0000
vn 0.9999 0.0103 -0.0000
vn 1.0000 0.0084 0.0000
vn 1.0000 0.0084 0.0000
vn 1.0000 0.0084 0.0000
vn 1.0000 0.0084 0.0000
vn 0.4401 -0.6999 0.5625
vn 0.4401 -0.6999 0.5625
vn 0.4401 -0.6999 0.5625
vn 0.4401 -0.6999 0.5625
vn 0.4239 -0.6460 0.6348
vn 0.4239 -0.6460 0.6348
vn 0.4239 -0.6460 0.6348
vn 0.4239 -0.6460 0.6348
vn 0.4501 -0.6557 0.6062
vn 0.4501 -0.6557 0.6062
vn 0.4501 -0.6557 0.6062
vn 0.4501 -0.6557 0.6062
vn 0.4401 -0.6999 -0.5625
vn 0.4401 -0.6999 -0.5625
vn 0.4401 -0.6999 -0.5625
vn 0.4401 -0.6999 -0.5625
vn 0.4239 -0.6460 -0.6348
vn 0.4239 -0.6460 -0.6348
vn 0.4239 -0.6460 -0.6348
vn 0.4239 -0.6460 -0.6348
vn 0.4501 -0.6557 -0.6062
vn 0.4501 -0.6557 -0.6062
vn 0.4501 -0.6557 -0.6062
vn 0.4501 -0.6557 -0.6062
vn 0.8184 -0.5746 -0.0000
vn 0.8184 -0.5746 -0.0000
vn 0.8184 -0.5746 -0.0000
vn 0.8184 -0.5746 -0.0000
vn 0.8129 -0.5824 -0.0000
vn 0.8129 -0.5824 -0.0000
vn 0.8129 -0.5824 -0.0000
vn 0.8129 -0.5824 -0.0000
vn 0.8069 -0.5906 -0.0000
vn 0.8069 -0.5906 -0.0000
vn 0.8069 -0.5906 -0.0000
vn 0.8069 -0.5906 -0.0000
vn 0.3797 -0.0026 -0.9251
vn 0.3797 -0.0026 -0.9251
vn 0.3797 -0.0026 -0.9251
vn 0.3797 -0.0026 -0.9251
vn -0.3225 -0.0001 0.9466
vn -0.4706 -0.0914 0.8776
vn -0.3225 -0.0001 0.9466
vn -0.3000 -0.0059 0.9539
vn -0.3000 -0.0060 0.9539
vn -0.3210 -0.1308 0.9380
vn 0.0008 -1.0000 -0.0000
vn -0.2874 -0.0155 0.9577
vn -0.2935 -0.0144 0.9559
vn -0.2937 -0.0144 0.9558
vn -0.2874 -0.0155 0.9577
vn -0.9970 -0.0778 -0.0000
vn -0.9986 -0.0534 -0.0000
vn -0.9970 -0.0778 -0.0000
vn -0.9986 -0.0534 -0.0000
vn -0.9998 -0.0191 -0.0000
vn -0.4706 -0.0914 -0.8776
vn -0.6861 -0.0045 -0.7275
vn -0.6855 -0.0045 -0.7281
vn -0.7189 -0.0134 -0.6950
vn -0.7189 -0.0134 -0.6950
vn -0.3953 -0.2032 -0.8958
vn -0.7231 -0.0395 -0.6896
vn -0.7231 -0.0396 -0.6896
vn -1.0000 0.0081 -0.0000
vn -0.9997 0.0255 -0.0000
vn -1.0000 0.0081 -0.0000
vn -0.9997 0.0255 -0.0000
vn -0.9998 -0.0191 -0.0000
vn -0.2937 -0.0144 -0.9558
vn -0.3000 -0.0060 -0.9539
vn -0.2935 -0.0144 -0.9559
vn -0.3000 -0.0059 -0.9539
vn -0.2874 -0.0155 -0.9577
vn -0.3225 -0.0001 -0.9466
vn -0.5731 0.3211 0.7540
vn -0.7067 0.1333 0.6948
vn -0.5742 0.3211 0.7531
vn -0.7069 0.1327 0.6948
vn -0.7231 -0.0395 0.6896
vn -0.7231 -0.0396 0.6896
vn -0.4777 0.3202 0.8181
vn -0.4777 0.3202 0.8181
vn -0.7189 -0.0134 0.6950
vn -0.7189 -0.0134 0.6950
vn -0.6861 -0.0045 0.7275
vn -0.6855 -0.0045 0.7281
vn -0.4706 -0.0914 0.8776
vn -0.3953 -0.2032 0.8958
vn -0.3210 -0.1308 0.9380
vn -0.4706 -0.0914 0.8776
vn -0.2884 -0.2704 0.9185
vn -0.3953 -0.2032 0.8958
vn -0.2874 -0.0155 -0.9577
vn -0.3225 -0.0001 -0.9466
vn -0.4706 -0.0914 -0.8776
vn -0.3210 -0.1308 -0.9380
vn -0.7067 0.1333 -0.6948
vn -0.5731 0.3211 -0.7540
vn -0.5742 0.3211 -0.7531
vn -0.4777 0.3202 -0.8181
vn -0.4777 0.3202 -0.8181
vn -0.7069 0.1327 -0.6948
vn -0.8618 0.5073 -0.0000
vn -0.8815 0.4722 -0.0000
vn -0.8618 0.5073 -0.0000
vn -0.8815 0.4722 -0.0000
vn -0.8998 0.4363 -0.0000
vn -0.3210 -0.1308 -0.9380
vn -0.2884 -0.2704 -0.9185
vn -0.4706 -0.0914 -0.8776
vn -0.3953 -0.2032 -0.8958
vn -0.8998 0.4363 -0.0000
vn -0.5327 -0.8281 0.1745
vn -0.5327 -0.8281 -0.1745
vn -0.5338 -0.8277 0.1730
vn -0.5338 -0.8277 -0.1730
vn -0.4029 -0.8503 0.3385
vn -0.4029 -0.8503 -0.3385
vn -0.4029 -0.8503 -0.3385
vn -0.1427 0.0006 0.9898
vn -0.1239 -0.0010 0.9923
vn -0.1793 0.0038 -0.9838
vn -0.1427 0.0006 -0.9898
vn -0.1793 0.0038 -0.9838
vn -0.1239 -0.0010 -0.9923
vn -0.3040 -0.9467 0.1061
vn -0.3040 -0.9467 -0.1061
vn -0.2994 -0.9080 0.2929
vn -0.2833 -0.8336 0.4742
vn -0.2994 -0.9080 -0.2929
vn -0.2833 -0.8336 -0.4742
vn -0.2833 -0.8336 -0.4742
vn 0.2740 -0.0216 -0.9615
vn 0.5124 -0.0383 -0.8579
vn 0.2756 -0.0217 -0.9610
vn 0.5124 -0.0383 -0.8579
vn 0.0071 0.0023 -1.0000
vn -0.1793 0.0038 0.9838
vn -1.0000 0.0029 -0.0000
vn -1.0000 0.0029 -0.0000
vn -1.0000 0.0029 -0.0000
vn -1.0000 0.0029 -0.0000
vn -0.1793 0.0038 0.9838
vn -0.0353 -0.9994 -0.0000
vn -0.3935 -0.9193 -0.0000
vn -0.0353 -0.9994 -0.0000
vn 0.3554 -0.9347 -0.0000
vn 0.3554 -0.9347 -0.0000
vn 0.6107 -0.7918 -0.0000
vn -0.3797 -0.0026 0.9251
vn -0.3797 -0.0026 0.9251
vn -0.3797 -0.0026 0.9251
vn -0.3797 -0.0026 0.9251
vn 0.2740 -0.0216 0.9615
vn 0.5124 -0.0383 0.8579
vn 0.5124 -0.0383 0.8579
vn 0.2756 -0.0217 0.9610
vn 0.0071 0.0023 1.0000
vn 0.0023 0.0028 1.0000
vn -0.4300 0.9028 -0.0000
vn -0.5451 0.8383 -0.0000
vn -0.4300 0.9028 -0.0000
vn -0.2743 0.9616 -0.0000
vn -0.2743 0.9616 -0.0000
vn 0.1374 0.9905 -0.0000
vn 0.0152 0.9999 -0.0000
vn 0.0152 0.9999 -0.0000
vn 0.1374 0.9905 -0.0000
vn -0.1323 0.9912 -0.0000
vn -0.1323 0.9912 -0.0000
vn -0.7973 0.6036 -0.0000
vn -0.5639 0.8258 -0.0000
vn -0.5639 0.8258 -0.0000
vn -0.7973 0.6036 -0.0000
vn -0.2059 0.9786 -0.0000
vn -0.7187 -0.6954 -0.0000
vn -0.3935 -0.9193 -0.0000
vn -0.7187 -0.6954 -0.0000
vn -0.8972 -0.4415 -0.0000
vn -0.8972 -0.4415 -0.0000
vn -0.2059 0.9786 -0.0000
vn 0.1410 0.9900 -0.0000
vn -0.5022 0.8647 -0.0000
vn -0.5451 0.8383 -0.0000
vn -0.5022 0.8647 -0.0000
vn -0.7579 0.0853 0.6468
vn -0.5052 0.0567 0.8611
vn -0.7579 0.0853 0.6468
vn -0.2358 0.0279 0.9714
vn -0.2337 0.0276 0.9719
vn -0.5094 0.0572 0.8587
vn -0.5052 0.0567 -0.8611
vn -0.2358 0.0279 -0.9714
vn -0.5094 0.0572 -0.8587
vn -0.7579 0.0853 -0.6468
vn -0.7579 0.0853 -0.6468
vn -0.2337 0.0276 -0.9719
vn 0.0023 0.0028 -1.0000
vn -0.9934 0.1150 -0.0000
vn -0.9934 0.1150 -0.0000
vn -0.9934 0.1150 -0.0000
vn -0.9934 0.1150 -0.0000
vn -0.1049 -0.9945 -0.0000
vn -0.1576 -0.9875 -0.0000
vn -0.1049 -0.9945 -0.0000
vn -0.1576 -0.9875 -0.0000
vn -0.0424 -0.9991 -0.0000
vn 0.1410 0.9900 -0.0000
vn 0.4915 0.8709 -0.0000
vn 0.7048 0.7094 -0.0000
vn 0.7048 0.7094 -0.0000
vn 0.4915 0.8709 -0.0000
vn -0.0424 -0.9991 -0.0000
vn -0.2833 -0.8336 0.4742
vn -0.1944 0.2847 0.9387
vn 0.6107 -0.7918 -0.0000
vn -0.4029 -0.8503 0.3385
vn -0.9964 0.0849 -0.0000
vn -0.9964 0.0849 -0.0000
vn -0.9964 0.0849 -0.0000
vn -0.9964 0.0849 -0.0000
vn -0.9987 -0.0503 -0.0000
vn -0.9987 -0.0503 -0.0000
vn -0.9987 -0.0503 -0.0000
vn -0.9987 -0.0503 -0.0000
vn -0.2370 0.7972 0.5552
vn -0.5037 -0.1741 0.8461
vn -0.5037 -0.1741 0.8461
vn -0.5037 -0.1741 0.8461
vn -0.5037 -0.1741 0.8461
vn -0.2370 0.7972 -0.5552
vn -0.5207 0.8538 -0.0000
vn -0.5207 0.8538 -0.0000
vn -0.5207 0.8538 -0.0000
vn -0.5207 0.8538 -0.0000
vn -0.2171 0.6978 0.6826
vn -0.9814 0.1921 -0.0000
vn -0.9814 0.1921 -0.0000
vn -0.9814 0.1921 -0.0000
vn -0.9814 0.1921 -0.0000
vn -0.5037 -0.1741 -0.8461
vn -0.5037 -0.1741 -0.8461
vn -0.5037 -0.1741 -0.8461
vn -0.5037 -0.1741 -0.8461
vn -0.4168 -0.5227 -0.7437
vn -0.4168 -0.5227 -0.7437
vn -0.4168 -0.5227 -0.7437
vn -0.4168 -0.5227 -0.7437
vn -0.5530 0.8332 -0.0000
vn -0.5530 0.8332 -0.0000
vn -0.5530 0.8332 -0.0000
vn -0.5530 0.8332 -0.0000
vn -0.2171 0.6978 -0.6826
vn -0.3668 -0.9303 -0.0000
vn -0.3668 -0.9303 -0.0000
vn -0.3668 -0.9303 -0.0000
vn -0.3668 -0.9303 -0.0000
vn -0.4168 -0.5227 0.7437
vn -0.4168 -0.5227 0.7437
vn -0.4168 -0.5227 0.7437
vn -0.4168 -0.5227 0.7437
vn -0.8399 -0.5427 -0.0000
vn -0.8399 -0.5427 -0.0000
vn -0.8399 -0.5427 -0.0000
vn -0.8399 -0.5427 -0.0000
vn -0.9482 0.3178 -0.0000
vn -0.9482 0.3178 -0.0000
vn -0.9482 0.3178 -0.0000
vn -0.9482 0.3178 -0.0000
vn -0.4507 0.2145 0.8665
vn -0.4507 0.2145 0.8665
vn -0.4507 0.2145 0.8665
vn -0.4507 0.2145 0.8665
vn -0.4507 0.2145 -0.8665
vn -0.4507 0.2145 -0.8665
vn -0.4507 0.2145 -0.8665
vn -0.4507 0.2145 -0.8665
vn -0.3738 0.0323 0.9270
vn -0.3738 0.0323 0.9270
vn -0.3738 0.0323 0.9270
vn -0.3738 0.0323 0.9270
vn -0.4050 0.1099 0.9077
vn -0.4050 0.1099 0.9077
vn -0.4050 0.1099 0.9077
vn -0.4050 0.1099 0.9077
vn -0.4844 0.0630 0.8726
vn -0.4844 0.0630 0.8726
vn -0.4844 0.0630 0.8726
vn -0.4844 0.0630 0.8726
vn -0.3738 0.0323 -0.9270
vn -0.3738 0.0323 -0.9270
vn -0.3738 0.0323 -0.9270
vn -0.3738 0.0323 -0.9270
vn -0.4050 0.1099 -0.9077
vn -0.4050 0.1099 -0.9077
vn -0.4050 0.1099 -0.9077
vn -0.4050 0.1099 -0.9077
vn -0.4844 0.0630 -0.8726
vn -0.4844 0.0630 -0.8726
vn -0.4844 0.0630 -0.8726
vn -0.4844 0.0630 -0.8726
vn -1.0000 0.0096 -0.0000
vn -1.0000 0.0096 -0.0000
vn -1.0000 0.0096 -0.0000
vn -1.0000 0.0096 -0.0000
vn -0.9999 0.0103 -0.0000
vn -0.9999 0.0103 -0.0000
vn -0.9999 0.0103 -0.0000
vn -0.9999 0.0103 -0.0000
vn -1.0000 0.0084 0.0000
vn -1.0000 0.0084 0.0000
vn -1.0000 0.0084 0.0000
vn -1.0000 0.0084 0.0000
vn -0.4401 -0.6999 0.5625
vn -0.4401 -0.6999 0.5625
vn -0.4401 -0.6999 0.5625
vn -0.4401 -0.6999 0.5625
vn -0.4239 -0.6460 0.6348
vn -0.4239 -0.6460 0.6348
vn -0.4239 -0.6460 0.6348
vn -0.4239 -0.6460 0.6348
vn -0.4501 -0.6557 0.6062
vn -0.4501 -0.6557 0.6062
vn -0.4501 -0.6557 0.6062
vn -0.4501 -0.6557 0.6062
vn -0.4401 -0.6999 -0.5625
vn -0.4401 -0.6999 -0.5625
vn -0.4401 -0.6999 -0.5625
vn -0.4401 -0.6999 -0.5625
vn -0.4239 -0.6460 -0.6348
vn -0.4239 -0.6460 -0.6348
vn -0.4239 -0.6460 -0.6348
vn -0.4239 -0.6460 -0.6348
vn -0.4501 -0.6557 -0.6062
vn -0.4501 -0.6557 -0.6062
vn -0.4501 -0.6557 -0.6062
vn -0.4501 -0.6557 -0.6062
vn -0.8184 -0.5746 -0.0000
vn -0.8184 -0.5746 -0.0000
vn -0.8184 -0.5746 -0.0000
vn -0.8184 -0.5746 -0.0000
vn -0.8129 -0.5824 -0.0000
vn -0.8129 -0.5824 -0.0000
vn -0.8129 -0.5824 -0.0000
vn -0.8129 -0.5824 -0.0000
vn -0.8069 -0.5906 -0.0000
vn -0.8069 -0.5906 -0.0000
vn -0.8069 -0.5906 -0.0000
vn -0.8069 -0.5906 -0.0000
vn -0.3797 -0.0026 -0.9251
vn -0.3797 -0.0026 -0.9251
vn -0.3797 -0.0026 -0.9251
vn -0.3797 -0.0026 -0.9251
f 1/1/1 2/2/2 3/3/3
f 2/2/2 1/1/1 4/4/4
f 3/3/3 5/5/5 1/1/1
f 6/6/6 7/7/7 8/8/8
f 8/8/8 9/9/9 6/6/6
f 10/10/10 8/8/8 7/7/7
f 11/11/11 12/12/12 13/13/13
f 12/12/12 11/11/11 14/14/14
f 14/14/14 15/15/15 12/12/12
f 16/16/16 17/17/17 18/18/18
f 16/16/16 19/19/19 20/20/20
f 16/16/16 21/21/21 17/17/17
f 21/21/21 16/16/16 20/20/20
f 22/22/22 23/23/23 24/24/24
f 23/23/23 25/25/25 26/26/26
f 24/24/24 23/23/23 26/26/26
f 26/26/26 25/25/25 27/27/27
f 28/28/28 29/29/29 30/30/30
f 28/28/28 31/31/31 32/32/32
f 31/31/31 28/28/28 33/33/33
f 34/34/34 35/35/35 36/36/36
f 35/35/35 37/37/37 36/36/36
f 35/35/35 34/34/34 38/38/38
f 35/35/35 38/38/38 39/39/39
f 15/15/15 14/14/14 5/5/5
f 5/5/5 3/3/3 15/15/15
f 29/29/29 28/28/28 32/32/32
f 29/29/29 40/40/40 30/30/30
f 41/41/41 42/42/42 43/43/43
f 43/43/43 42/42/42 44/44/44
f 45/45/45 46/46/46 47/47/47
f 46/46/46 45/45/45 48/48/48
f 47/47/47 49/49/49 50/50/50
f 51/51/51 52/52/52 53/53/53
f 51/51/51 54/54/54 55/55/55
f 54/54/54 56/56/56 57/57/57
f 54/54/54 51/51/51 58/58/58
f 57/57/57 55/55/55 54/54/54
f 53/53/53 58/58/58 51/51/51
f 53/53/53 59/59/59 60/60/60
f 59/59/59 61/61/61 62/62/62
f 59/59/59 53/53/53 52/52/52
f 62/62/62 60/60/60 59/59/59
f 63/63/63 62/62/62 61/61/61
f 64/64/64 62/62/62 63/63/63
f 65/65/65 66/66/66 67/67/67
f 67/67/67 66/66/66 68/68/68
f 69/69/69 70/70/70 48/48/48
f 69/69/69 48/48/48 45/45/45
f 49/49/49 71/71/71 50/50/50
f 49/49/49 47/47/47 46/46/46
f 50/50/50 71/71/71 72/72/72
f 73/73/73 74/74/74 75/75/75
f 74/74/74 73/73/73 76/76/76
f 74/74/74 40/40/40 77/77/77
f 75/75/75 78/78/78 73/73/73
f 76/76/76 40/40/40 74/74/74
f 40/40/40 29/29/29 77/77/77
f 79/79/79 80/80/80 81/81/81
f 80/80/80 82/82/82 83/83/83
f 81/81/81 80/80/80 83/83/83
f 83/83/83 82/82/82 84/84/84
f 85/85/85 86/86/86 87/87/87
f 86/86/86 88/88/88 87/87/87
f 25/25/25 41/41/41 27/27/27
f 27/27/27 41/41/41 43/43/43
f 89/89/89 73/73/73 78/78/78
f 90/90/90 91/91/91 92/92/92
f 90/90/90 92/92/92 93/93/93
f 92/92/92 94/94/94 95/95/95
f 93/93/93 96/96/96 90/90/90
f 97/97/97 98/98/98 99/99/99
f 98/98/98 100/100/100 101/101/101
f 98/98/98 101/101/101 102/102/102
f 98/98/98 103/103/103 104/104/104
f 98/98/98 105/105/105 103/103/103
f 99/99/99 106/106/106 97/97/97
f 99/99/99 102/102/102 107/107/107
f 105/105/105 108/108/108 109/109/109
f 105/105/105 109/109/109 103/103/103
f 105/105/105 98/98/98 97/97/97
f 110/110/110 111/111/111 112/112/112
f 110/110/110 113/113/113 114/114/114
f 110/110/110 114/114/114 115/115/115
f 110/110/110 116/116/116 111/111/111
f 116/116/116 110/110/110 115/115/115
f 116/116/116 117/117/117 111/111/111
f 115/115/115 118/118/118 119/119/119
f 115/115/115 120/120/120 116/116/116
f 121/121/121 108/108/108 122/122/122
f 108/108/108 121/121/121 109/109/109
f 123/123/123 124/124/124 125/125/125
f 124/124/124 126/126/126 125/125/125
f 125/125/125 126/126/126 127/127/127
f 125/125/125 128/128/128 123/123/123
f 128/128/128 129/129/129 123/123/123
f 130/130/130 131/131/131 132/132/132
f 131/131/131 130/130/130 133/133/133
f 133/133/133 134/134/134 135/135/135
f 136/136/136 111/111/111 117/117/117
f 136/136/136 117/117/117 137/137/137
f 138/138/138 139/139/139 140/140/140
f 141/141/141 140/140/140 139/139/139
f 142/142/142 136/136/136 137/137/137
f 96/96/96 93/93/93 143/143/143
f 144/144/144 145/145/145 146/146/146
f 145/145/145 144/144/144 147/147/147
f 146/146/146 148/148/148 144/144/144
f 148/148/148 146/146/146 149/149/149
f 150/150/150 151/151/151 152/152/152
f 151/151/151 150/150/150 153/153/153
f 154/154/154 155/155/155 156/156/156
f 155/155/155 154/154/154 157/157/157
f 156/156/156 158/158/158 154/154/154
f 159/159/159 160/160/160 161/161/161
f 160/160/160 159/159/159 162/162/162
f 161/161/161 163/163/163 164/164/164
f 165/165/165 104/104/104 103/103/103
f 104/104/104 165/165/165 166/166/166
f 104/104/104 167/167/167 100/100/100
f 168/168/168 169/169/169 170/170/170
f 169/169/169 168/168/168 171/171/171
f 170/170/170 172/172/172 173/173/173
f 174/174/174 175/175/175 176/176/176
f 177/177/177 175/175/175 174/174/174
f 178/178/178 179/179/179 180/180/180
f 178/178/178 181/181/181 179/179/179
f 180/180/180 147/147/147 178/178/178
f 147/147/147 180/180/180 145/145/145
f 182/182/182 183/183/183 175/175/175
f 182/182/182 175/175/175 177/177/177
f 183/183/183 182/182/182 184/184/184
f 164/164/164 163/163/163 185/185/185
f 163/163/163 161/161/161 160/160/160
f 185/185/185 163/163/163 186/186/186
f 187/187/187 188/188/188 189/189/189
f 187/187/187 190/190/190 188/188/188
f 187/187/187 191/191/191 190/190/190
f 129/129/129 128/128/128 192/192/192
f 193/193/193 194/194/194 195/195/195
f 193/193/193 196/196/196 197/197/197
f 196/196/196 193/193/193 198/198/198
f 199/199/199 200/200/200 201/201/201
f 200/200/200 199/199/199 202/202/202
f 201/201/201 200/200/200 135/135/135
f 202/202/202 199/199/199 203/203/203
f 204/204/204 205/205/205 206/206/206
f 206/206/206 112/112/112 204/204/204
f 206/206/206 207/207/207 208/208/208
f 112/112/112 206/206/206 110/110/110
f 209/209/209 210/210/210 211/211/211
f 209/209/209 211/211/211 212/212/212
f 213/213/213 214/214/214 215/215/215
f 213/213/213 215/215/215 216/216/216
f 214/214/214 217/217/217 215/215/215
f 203/203/203 199/199/199 218/218/218
f 134/134/134 133/133/133 130/130/130
f 135/135/135 134/134/134 201/201/201
f 219/219/219 220/220/220 184/184/184
f 219/219/219 221/221/221 222/222/222
f 220/220/220 219/219/219 222/222/222
f 184/184/184 220/220/220 183/183/183
f 120/120/120 115/115/115 119/119/119
f 181/181/181 178/178/178 223/223/223
f 224/224/224 213/213/213 216/216/216
f 225/225/225 226/226/226 227/227/227
f 225/225/225 228/228/228 229/229/229
f 226/226/226 225/225/225 229/229/229
f 149/149/149 146/146/146 230/230/230
f 221/221/221 219/219/219 231/231/231
f 94/94/94 92/92/92 91/91/91
f 232/232/232 233/233/233 234/234/234
f 235/235/235 234/234/234 233/233/233
f 236/236/236 237/237/237 238/238/238
f 237/237/237 236/236/236 239/239/239
f 172/172/172 170/170/170 169/169/169
f 158/158/158 156/156/156 240/240/240
f 240/240/240 241/241/241 158/158/158
f 106/106/106 99/99/99 242/242/242
f 243/243/243 244/244/244 245/245/245
f 243/243/243 246/246/246 247/247/247
f 244/244/244 243/243/243 247/247/247
f 248/248/248 249/249/249 250/250/250
f 249/249/249 248/248/248 251/251/251
f 252/252/252 253/253/253 254/254/254
f 252/252/252 254/254/254 255/255/255
f 254/254/254 253/253/253 256/256/256
f 257/257/257 258/258/258 259/259/259
f 258/258/258 257/257/257 260/260/260
f 261/261/261 262/262/262 263/263/263
f 261/261/261 263/263/263 264/264/264
f 264/264/264 265/265/265 261/261/261
f 266/266/266 267/267/267 268/268/268
f 268/268/268 267/267/267 269/269/269
f 270/270/270 271/271/271 272/272/272
f 270/270/270 272/272/272 273/273/273
f 274/274/274 275/275/275 276/276/276
f 274/274/274 276/276/276 277/277/277
f 278/278/278 279/279/279 280/280/280
f 278/278/278 280/280/280 281/281/281
f 282/282/282 283/283/283 284/284/284
f 282/282/282 285/285/285 286/286/286
f 283/283/283 282/282/282 286/286/286
f 287/287/287 288/288/288 289/289/289
f 290/290/290 289/289/289 288/288/288
f 291/291/291 292/292/292 293/293/293
f 292/292/292 291/291/291 294/294/294
f 295/295/295 296/296/296 297/297/297
f 297/297/297 296/296/296 298/298/298
f 299/299/299 300/300/300 301/301/301
f 301/301/301 300/300/300 302/302/302
f 303/303/303 304/304/304 305/305/305
f 304/304/304 303/303/303 306/306/306
f 307/307/307 308/308/308 309/309/309
f 308/308/308 307/307/307 310/310/310
f 241/241/241 240/240/240 191/191/191
f 191/191/191 187/187/187 241/241/241
f 311/311/311 312/312/312 313/313/313
f 312/312/312 311/311/311 314/314/314
f 315/315/315 316/316/316 317/317/317
f 316/316/316 315/315/315 318/318/318
f 319/319/319 320/320/320 321/321/321
f 320/320/320 319/319/319 322/322/322
f 323/323/323 324/324/324 325/325/325
f 324/324/324 323/323/323 326/326/326
f 327/327/327 328/328/328 329/329/329
f 328/328/328 327/327/327 330/330/330
f 331/331/331 332/332/332 333/333/333
f 332/332/332 331/331/331 334/334/334
f 335/335/335 336/336/336 337/337/337
f 336/336/336 335/335/335 338/338/338
f 339/339/339 340/340/340 341/341/341
f 340/340/340 339/339/339 342/342/342
f 343/343/343 344/344/344 345/345/345
f 345/345/345 346/346/346 343/343/343
f 347/347/347 348/348/348 349/349/349
f 348/348/348 347/347/347 350/350/350
f 351/351/351 352/352/352 353/353/353
f 352/352/352 351/351/351 354/354/354
f 355/355/355 356/356/356 357/357/357
f 355/355/355 358/358/358 356/356/356
f 359/359/359 360/360/360 361/361/361
f 359/359/359 361/361/361 362/362/362
f 363/363/363 364/364/364 365/365/365
f 363/363/363 366/366/366 364/364/364
f 367/367/367 368/368/368 369/369/369
f 368/368/368 367/367/367 370/370/370
f 371/371/371 372/372/372 373/373/373
f 371/371/371 374/374/374 372/372/372
f 375/375/375 376/376/376 377/377/377
f 376/376/376 375/375/375 378/378/378
f 379/379/379 380/380/380 381/381/381
f 379/379/379 382/382/382 380/380/380
f 383/383/383 384/384/384 385/385/385
f 384/384/384 383/383/383 386/386/386
f 387/387/387 388/388/388 389/389/389
f 387/387/387 390/390/390 391/391/391
f 389/389/389 388/388/388 392/392/392
f 9/9/9 8/8/8 393/393/393
f 394/394/394 395/395/395 396/396/396
f 394/394/394 397/397/397 395/395/395
f 396/396/396 391/391/391 390/390/390
f 398/398/398 399/399/399 400/400/400
f 399/399/399 398/398/398 401/401/401
f 401/401/401 402/402/402 399/399/399
f 403/403/403 404/404/404 405/405/405
f 404/404/404 406/406/406 407/407/407
f 408/408/408 404/404/404 403/403/403
f 391/391/391 396/396/396 395/395/395
f 390/390/390 387/387/387 389/389/389
f 407/407/407 405/405/405 404/404/404
f 407/407/407 409/409/409 410/410/410
f 411/411/411 412/412/412 413/413/413
f 412/412/412 411/411/411 414/414/414
f 413/413/413 415/415/415 411/411/411
f 416/416/416 417/417/417 418/418/418
f 417/417/417 416/416/416 419/419/419
f 418/418/418 420/420/420 416/416/416
f 419/419/419 421/421/421 417/417/417
f 422/422/422 423/423/423 424/424/424
f 423/423/423 422/422/422 425/425/425
f 423/423/423 426/426/426 427/427/427
f 424/424/424 428/428/428 422/422/422
f 425/425/425 426/426/426 423/423/423
f 429/429/429 422/422/422 428/428/428
f 426/426/426 430/430/430 427/427/427
f 430/430/430 426/426/426 431/431/431
f 430/430/430 432/432/432 433/433/433
f 432/432/432 430/430/430 431/431/431
f 432/432/432 434/434/434 433/433/433
f 434/434/434 432/432/432 435/435/435
f 436/436/436 437/437/437 438/438/438
f 437/437/437 439/439/439 438/438/438
f 420/420/420 418/418/418 440/440/440
f 441/441/441 442/442/442 421/421/421
f 442/442/442 441/441/441 443/443/443
f 421/421/421 419/419/419 441/441/441
f 444/444/444 410/410/410 409/409/409
f 444/444/444 445/445/445 446/446/446
f 445/445/445 447/447/447 448/448/448
f 445/445/445 444/444/444 449/449/449
f 409/409/409 407/407/407 406/406/406
f 409/409/409 449/449/449 444/444/444
f 450/450/450 451/451/451 452/452/452
f 451/451/451 450/450/450 453/453/453
f 453/453/453 454/454/454 451/451/451
f 455/455/455 456/456/456 457/457/457
f 457/457/457 456/456/456 458/458/458
f 454/454/454 453/453/453 459/459/459
f 402/402/402 401/401/401 415/415/415
f 415/415/415 413/413/413 402/402/402
f 448/448/448 446/446/446 445/445/445
f 460/460/460 461/461/461 462/462/462
f 462/462/462 461/461/461 463/463/463
f 462/462/462 464/464/464 460/460/460
f 463/463/463 465/465/465 466/466/466
f 102/102/102 99/99/99 98/98/98
f 113/113/113 467/467/467 468/468/468
f 113/113/113 110/110/110 208/208/208
f 113/113/113 468/468/468 114/114/114
f 469/469/469 470/470/470 471/471/471
f 470/470/470 472/472/472 471/471/471
f 470/470/470 101/101/101 472/472/472
f 473/473/473 474/474/474 475/475/475
f 475/475/475 476/476/476 473/473/473
f 475/475/475 474/474/474 477/477/477
f 477/477/477 478/478/478 479/479/479
f 480/480/480 481/481/481 482/482/482
f 481/481/481 480/480/480 483/483/483
f 482/482/482 484/484/484 480/480/480
f 467/467/467 485/485/485 468/468/468
f 486/486/486 487/487/487 488/488/488
f 486/486/486 488/488/488 489/489/489
f 100/100/100 98/98/98 104/104/104
f 100/100/100 472/472/472 101/101/101
f 485/485/485 467/467/467 490/490/490
f 465/465/465 463/463/463 461/461/461
f 491/491/491 492/492/492 493/493/493
f 491/491/491 493/493/493 494/494/494
f 494/494/494 495/495/495 496/496/496
f 494/494/494 493/493/493 495/495/495
f 497/497/497 498/498/498 499/499/499
f 498/498/498 497/497/497 500/500/500
f 501/501/501 502/502/502 503/503/503
f 502/502/502 501/501/501 504/504/504
f 504/504/504 505/505/505 506/506/506
f 507/507/507 508/508/508 509/509/509
f 507/507/507 509/509/509 510/510/510
f 510/510/510 509/509/509 511/511/511
f 167/167/167 104/104/104 166/166/166
f 512/512/512 513/513/513 514/514/514
f 512/512/512 514/514/514 515/515/515
f 513/513/513 516/516/516 517/517/517
f 513/513/513 517/517/517 514/514/514
f 518/518/518 519/519/519 520/520/520
f 519/519/519 518/518/518 521/521/521
f 520/520/520 519/519/519 522/522/522
f 523/523/523 524/524/524 525/525/525
f 523/523/523 526/526/526 527/527/527
f 523/523/523 525/525/525 526/526/526
f 492/492/492 524/524/524 523/523/523
f 492/492/492 491/491/491 524/524/524
f 522/522/522 519/519/519 528/528/528
f 528/528/528 529/529/529 522/522/522
f 530/530/530 508/508/508 531/531/531
f 508/508/508 530/530/530 532/532/532
f 531/531/531 508/508/508 507/507/507
f 533/533/533 534/534/534 535/535/535
f 534/534/534 536/536/536 537/537/537
f 538/538/538 534/534/534 533/533/533
f 478/478/478 477/477/477 474/474/474
f 194/194/194 193/193/193 197/197/197
f 539/539/539 540/540/540 541/541/541
f 539/539/539 542/542/542 543/543/543
f 539/539/539 541/541/541 542/542/542
f 540/540/540 539/539/539 544/544/544
f 544/544/544 545/545/545 540/540/540
f 207/207/207 206/206/206 205/205/205
f 208/208/208 110/110/110 206/206/206
f 546/546/546 547/547/547 548/548/548
f 547/547/547 546/546/546 549/549/549
f 550/550/550 551/551/551 552/552/552
f 551/551/551 550/550/550 553/553/553
f 552/552/552 554/554/554 550/550/550
f 484/484/484 545/545/545 544/544/544
f 484/484/484 482/482/482 545/545/545
f 529/529/529 528/528/528 555/555/555
f 529/529/529 555/555/555 556/556/556
f 556/556/556 557/557/557 558/558/558
f 556/556/556 555/555/555 559/559/559
f 118/118/118 115/115/115 114/114/114
f 554/554/554 552/552/552 560/560/560
f 476/476/476 475/475/475 561/561/561
f 228/228/228 225/225/225 562/562/562
f 496/496/496 563/563/563 494/494/494
f 557/557/557 556/556/556 559/559/559
f 464/464/464 462/462/462 564/564/564
f 565/565/565 566/566/566 567/567/567
f 565/565/565 567/567/567 568/568/568
f 569/569/569 570/570/570 571/571/571
f 570/570/570 569/569/569 572/572/572
f 505/505/505 504/504/504 501/501/501
f 506/506/506 537/537/537 536/536/536
f 107/107/107 242/242/242 99/99/99
f 246/246/246 243/243/243 573/573/573
f 574/574/574 575/575/575 576/576/576
f 575/575/575 574/574/574 577/577/577
f 578/578/578 254/254/254 256/256/256
f 579/579/579 580/580/580 581/581/581
f 580/580/580 579/579/579 582/582/582
f 583/583/583 261/261/261 265/265/265
f 584/584/584 585/585/585 586/586/586
f 585/585/585 587/587/587 586/586/586
f 588/588/588 589/589/589 590/590/590
f 591/591/591 590/590/590 589/589/589
f 592/592/592 593/593/593 594/594/594
f 595/595/595 594/594/594 593/593/593
f 596/596/596 597/597/597 598/598/598
f 598/598/598 597/597/597 599/599/599
f 285/285/285 282/282/282 600/600/600
f 601/601/601 602/602/602 603/603/603
f 602/602/602 601/601/601 604/604/604
f 605/605/605 606/606/606 607/607/607
f 606/606/606 605/605/605 608/608/608
f 609/609/609 610/610/610 611/611/611
f 610/610/610 612/612/612 611/611/611
f 613/613/613 614/614/614 615/615/615
f 614/614/614 616/616/616 615/615/615
f 617/617/617 618/618/618 619/619/619
f 620/620/620 619/619/619 618/618/618
f 621/621/621 622/622/622 623/623/623
f 622/622/622 621/621/621 624/624/624
f 537/537/537 506/506/506 505/505/505
f 536/536/536 534/534/534 538/538/538
f 625/625/625 626/626/626 627/627/627
f 626/626/626 625/625/625 628/628/628
f 629/629/629 630/630/630 631/631/631
f 630/630/630 629/629/629 632/632/632
f 633/633/633 634/634/634 635/635/635
f 634/634/634 633/633/633 636/636/636
f 637/637/637 638/638/638 639/639/639
f 638/638/638 637/637/637 640/640/640
f 641/641/641 642/642/642 643/643/643
f 642/642/642 641/641/641 644/644/644
f 645/645/645 646/646/646 647/647/647
f 646/646/646 645/645/645 648/648/648
f 649/649/649 650/650/650 651/651/651
f 650/650/650 649/649/649 652/652/652
f 653/653/653 654/654/654 655/655/655
f 654/654/654 653/653/653 656/656/656
f 657/657/657 658/658/658 659/659/659
f 659/659/659 658/658/658 660/660/660
f 661/661/661 662/662/662 663/663/663
f 662/662/662 661/661/661 664/664/664
f 665/665/665 666/666/666 667/667/667
f 666/666/666 665/665/665 668/668/668
f 669/669/669 670/670/670 671/671/671
f 672/672/672 670/670/670 669/669/669
f 673/673/673 674/674/674 675/675/675
f 676/676/676 675/675/675 674/674/674
f 677/677/677 678/678/678 679/679/679
f 680/680/680 679/679/679 678/678/678
f 681/681/681 682/682/682 683/683/683
f 682/682/682 681/681/681 684/684/684
f 685/685/685 686/686/686 687/687/687
f 687/687/687 686/686/686 688/688/688
f 689/689/689 690/690/690 691/691/691
f 690/690/690 689/689/689 692/692/692
f 693/693/693 694/694/694 695/695/695
f 695/695/695 694/694/694 696/696/696
f 697/697/697 698/698/698 699/699/699
f 698/698/698 697/697/697 700/700/700
